<svg xmlns="http://www.w3.org/2000/svg" width="61" height="61" viewBox="0 0 61 61">
  <g id="criacao-ios" transform="translate(749 6249)">
    <circle id="Elipse_11" data-name="Elipse 11" cx="30.5" cy="30.5" r="30.5" transform="translate(-749 -6249)" fill="#1a0f42"/>
    <g id="Grupo_88" data-name="Grupo 88" transform="translate(-1489.054 -7993.097)">
      <g id="Grupo_88-2" data-name="Grupo 88" transform="translate(778.479 1769.656)">
        <path id="Caminho_537" data-name="Caminho 537" d="M791.89,1781.452c.023-.221.033-.551.092-.872a2.359,2.359,0,0,1,3.308-2,2.354,2.354,0,0,0,1.534,0,2.3,2.3,0,0,1,2.688.609c.376.445.35.618-.141.929a1.328,1.328,0,0,0-.685,1.3,1.275,1.275,0,0,0,.887,1.162.518.518,0,0,1,.365.795,10.126,10.126,0,0,1-.6,1.363,2.137,2.137,0,0,1-2.765.937,1.307,1.307,0,0,0-1.027-.006,2.162,2.162,0,0,1-2.807-.954A6.3,6.3,0,0,1,791.89,1781.452Zm6.657-1.921a1.638,1.638,0,0,0-1.642-.057,2,2,0,0,1-1.695-.006,1.91,1.91,0,0,0-.447-.118,1.384,1.384,0,0,0-1.837,1.1,4.987,4.987,0,0,0,.509,3.7,1.328,1.328,0,0,0,1.914.652,1.725,1.725,0,0,1,1.436.007,1.359,1.359,0,0,0,1.906-.686c.06-.1.105-.217.164-.323a.476.476,0,0,0-.164-.727,2.209,2.209,0,0,1-.462-3.085C798.324,1779.847,798.421,1779.711,798.547,1779.531Z" transform="translate(-791.89 -1775.328)" fill="#fff"/>
        <path id="Caminho_538" data-name="Caminho 538" d="M797.88,1776.806c-.613,0-.753-.14-.738-.763a2.217,2.217,0,0,1,2.263-2.137c.411.016.622.179.632.626A2.172,2.172,0,0,1,797.88,1776.806Zm1.226-1.917a.958.958,0,0,0-.962,1A1.208,1.208,0,0,0,799.106,1774.888Z" transform="translate(-793.554 -1773.904)" fill="#fff"/>
      </g>
      <g id="Grupo_89" data-name="Grupo 89" transform="translate(773.04 1760.591)">
        <path id="Caminho_539" data-name="Caminho 539" d="M801.093,1788.735H785.254a1.327,1.327,0,0,1-1.327-1.326V1761.96a1.327,1.327,0,0,1,1.327-1.327h15.839a1.327,1.327,0,0,1,1.327,1.327v25.449A1.327,1.327,0,0,1,801.093,1788.735Z" transform="translate(-783.927 -1760.633)" fill="none" stroke="#fff" stroke-miterlimit="10" stroke-width="1.327"/>
        <path id="Caminho_540" data-name="Caminho 540" d="M789.67,1760.633l.968,1.909a1.647,1.647,0,0,0,1.469.9h5.736a1.647,1.647,0,0,0,1.356-.712l1.445-2.1" transform="translate(-785.747 -1760.633)" fill="none" stroke="#fff" stroke-miterlimit="10" stroke-width="1.327"/>
      </g>
      <g id="Grupo_90" data-name="Grupo 90" transform="translate(749.574 1760.5)">
        <rect id="Ret창ngulo_21" data-name="Ret창ngulo 21" width="20.293" height="28.193" rx="2.522" fill="none" stroke="#fff" stroke-miterlimit="10" stroke-width="1.327"/>
        <rect id="Ret창ngulo_22" data-name="Ret창ngulo 22" width="16.575" height="21.273" rx="0.116" transform="translate(1.859 2.583)" fill="none" stroke="#fff" stroke-miterlimit="10" stroke-width="1.327"/>
        <circle id="Elipse_12" data-name="Elipse 12" cx="0.852" cy="0.852" r="0.852" transform="translate(9.372 25.173)" fill="#fff"/>
        <path id="Caminho_541" data-name="Caminho 541" d="M757.833,1782.911h8.985s.811-6.2-4.493-6.2C757.059,1776.715,757.833,1782.911,757.833,1782.911Z" transform="translate(-752.179 -1765.639)" fill="none" stroke="#fff" stroke-miterlimit="10" stroke-width="1.327"/>
        <ellipse id="Elipse_13" data-name="Elipse 13" cx="0.465" cy="0.852" rx="0.465" ry="0.852" transform="translate(7.823 14.019)" fill="#fff"/>
        <ellipse id="Elipse_14" data-name="Elipse 14" cx="0.465" cy="0.852" rx="0.465" ry="0.852" transform="translate(11.696 14.019)" fill="#fff"/>
        <line id="Linha_2" data-name="Linha 2" x1="2.014" y1="1.704" transform="translate(5.344 10.146)" fill="none" stroke="#fff" stroke-linecap="round" stroke-miterlimit="10" stroke-width="1.593"/>
        <line id="Linha_3" data-name="Linha 3" y1="1.704" x2="2.014" transform="translate(13.09 10.146)" fill="none" stroke="#fff" stroke-linecap="round" stroke-miterlimit="10" stroke-width="1.593"/>
      </g>
    </g>
  </g>
</svg>
