<svg xmlns="http://www.w3.org/2000/svg" width="61" height="61" viewBox="0 0 61 61">
  <g id="ecomerce" transform="translate(749 6249)">
    <circle id="Elipse_11" data-name="Elipse 11" cx="30.5" cy="30.5" r="30.5" transform="translate(-749 -6249)" fill="#1a0f42"/>
    <g id="Grupo_85" data-name="Grupo 85" transform="translate(69.331 -7366.154)">
      <path id="Caminho_525" data-name="Caminho 525" d="M-773.749,1142.264h-28.174v.356q0,7.674,0,15.349a1.429,1.429,0,0,0,1.583,1.593c.214,0,.43-.008.643,0a1.09,1.09,0,0,1,1.022.995,1.052,1.052,0,0,1-.89,1.142,4.046,4.046,0,0,1-3.35-.911,3.545,3.545,0,0,1-1.176-2.7q0-3.651,0-7.3,0-6.762,0-13.524a3.554,3.554,0,0,1,2.746-3.561,4.037,4.037,0,0,1,.938-.1q12.582-.008,25.163,0a3.564,3.564,0,0,1,3.668,3.648q.008,10.413,0,20.826a3.571,3.571,0,0,1-3.661,3.657c-1.276.006-2.551,0-3.827,0a1.094,1.094,0,0,1-1.181-1.078,1.088,1.088,0,0,1,1.172-1.084c1.287,0,2.574,0,3.861,0a1.4,1.4,0,0,0,1.468-1.469q0-7.81,0-15.62C-773.74,1142.415-773.745,1142.359-773.749,1142.264Zm-28.17-2.2h28.18c0-.9,0-1.777,0-2.654a1.45,1.45,0,0,0-1.66-1.652h-24.857c-.113,0-.226,0-.339,0a1.381,1.381,0,0,0-1.317,1.3C-801.938,1138.054-801.919,1139.045-801.919,1140.062Z" fill="#fff"/>
      <path id="Caminho_526" data-name="Caminho 526" d="M-716.116,1294.3c-.995-.71-1.919-1.374-2.847-2.032a1.125,1.125,0,0,1-.531-.859,1.1,1.1,0,0,1,.851-1.149q2.662-.885,5.325-1.768,4.73-1.574,9.46-3.147a1.921,1.921,0,0,1,.721-.137,1.077,1.077,0,0,1,.893,1.52q-.93,2.8-1.871,5.6-1.551,4.641-3.1,9.283a1.128,1.128,0,0,1-.885.873,1.121,1.121,0,0,1-1.176-.557c-.594-.849-1.205-1.687-1.81-2.529-.051-.071-.109-.137-.175-.219l-3.843,3.839c-.088.088-.174.177-.264.262a1.074,1.074,0,0,1-1.6,0q-1.66-1.641-3.3-3.3a1.078,1.078,0,0,1,.038-1.643q1.886-1.893,3.783-3.777C-716.361,1294.482-716.256,1294.412-716.116,1294.3Zm.1-2.636c.026.044.032.068.047.079q.961.69,1.924,1.378a1.12,1.12,0,0,1,.152,1.941q-1.926,1.925-3.854,3.848c-.086.086-.168.177-.216.227l1.87,1.87a2.232,2.232,0,0,1,.2-.267q1.9-1.9,3.805-3.8c.754-.752,1.392-.7,2.006.156l1.417,1.976,3.7-11.08Z" transform="translate(-75.924 -137.923)" fill="#fff"/>
      <path id="Caminho_527" data-name="Caminho 527" d="M-753.9,1170.64a1.089,1.089,0,0,1-1.08,1.075,1.09,1.09,0,0,1-1.085-1.1,1.085,1.085,0,0,1,1.1-1.058A1.09,1.09,0,0,1-753.9,1170.64Z" transform="translate(-43.691 -32.714)" fill="#fff"/>
      <path id="Caminho_528" data-name="Caminho 528" d="M-718.963,1169.554a1.09,1.09,0,0,1,1.075,1.08,1.09,1.09,0,0,1-1.108,1.082,1.092,1.092,0,0,1-1.058-1.1A1.085,1.085,0,0,1-718.963,1169.554Z" transform="translate(-76.449 -32.715)" fill="#fff"/>
      <path id="Caminho_529" data-name="Caminho 529" d="M-681.881,1170.618a1.09,1.09,0,0,1-1.058,1.1,1.093,1.093,0,0,1-1.107-1.048,1.085,1.085,0,0,1,1.074-1.114A1.09,1.09,0,0,1-681.881,1170.618Z" transform="translate(-109.203 -32.715)" fill="#fff"/>
    </g>
  </g>
</svg>
