<svg xmlns="http://www.w3.org/2000/svg" width="61" height="61" viewBox="0 0 61 61">
  <g id="gestao" transform="translate(749 6249)">
    <circle id="Elipse_11" data-name="Elipse 11" cx="30.5" cy="30.5" r="30.5" transform="translate(-749 -6249)" fill="#1a0f42"/>
    <g id="Grupo_84" data-name="Grupo 84" transform="translate(-42.826 -6908.379)">
      <path id="Caminho_515" data-name="Caminho 515" d="M-677.223,713.372a2.627,2.627,0,0,1-2.009-1.471,4.015,4.015,0,0,1-.3-1.383c-.043-1.046,0-2.1-.024-3.143a.69.69,0,0,0-.232-.465,2.717,2.717,0,0,1-1.072-2.183c-.008-.566,0-1.133,0-1.806-.344.343-.619.621-.9.895a.709.709,0,0,1-1.092.1c-.545-.367-1.084-.743-1.681-1.152-.127.593-.246,1.141-.363,1.689-.032.152-.052.307-.1.455a.667.667,0,0,1-.672.537c-.852.006-1.7.01-2.557,0-.407,0-.615-.2-.712-.628-.148-.664-.286-1.33-.442-2.057l-1.566,1.077c-.6.41-.794.393-1.3-.117-.548-.549-1.1-1.1-1.643-1.648a.71.71,0,0,1-.1-1.095c.366-.545.74-1.086,1.146-1.682-.608-.13-1.169-.255-1.731-.37-.852-.174-.948-.288-.948-1.159,0-.7,0-1.4,0-2.1a.694.694,0,0,1,.634-.787c.653-.146,1.308-.281,2.025-.434-.082-.132-.142-.237-.21-.336q-.49-.721-.984-1.44a.661.661,0,0,1,.074-.915c.633-.646,1.27-1.29,1.919-1.92a.649.649,0,0,1,.945-.047c.559.371,1.111.751,1.667,1.127.008.006.024,0,.083,0,.132-.617.261-1.244.4-1.869.131-.594.25-.7.822-.771.146-.8.241-1.615.443-2.4a12.272,12.272,0,0,1,5.851-7.77,12.249,12.249,0,0,1,6.084-1.685.923.923,0,0,1,.232,0,2.234,2.234,0,0,0,2.206-.67,7.555,7.555,0,0,1,.862-.657.7.7,0,0,1,1.13.158c.455.6.9,1.2,1.349,1.8a.738.738,0,0,0,.774.395c.377-.081.5-.368.547-.713.107-.755.211-1.511.333-2.263.09-.558.364-.743.92-.663,1.162.166,2.324.334,3.487.493.679.093.884.364.782,1.054-.105.716-.2,1.434-.308,2.149a.708.708,0,0,0,.31.809.723.723,0,0,0,.855-.146q.88-.667,1.767-1.326c.508-.377.826-.33,1.21.181q1.061,1.409,2.115,2.825c.388.522.347.824-.164,1.213q-.879.669-1.767,1.326a.723.723,0,0,0-.363.823c.1.351.385.451.712.495.729.1,1.455.217,2.185.3a1.044,1.044,0,0,1,.753.467v.544c-.129.814-.26,1.627-.386,2.441-.059.383-.1.769-.164,1.152a.693.693,0,0,1-.88.638q-1.15-.163-2.3-.332a.7.7,0,0,0-.782.288.7.7,0,0,0,.1.857q.678.9,1.349,1.8c.378.51.33.828-.18,1.213q-1.408,1.062-2.821,2.118c-.516.385-.828.342-1.212-.165q-.667-.881-1.325-1.769a.729.729,0,0,0-.783-.377c-.37.088-.487.385-.535.727q-.154,1.114-.315,2.227c-.077.538-.336.758-.869.687q-1.842-.245-3.679-.523c-.55-.084-.728-.336-.659-.892.085-.693.192-1.383.288-2.074a.833.833,0,0,0,.033-.344,1.6,1.6,0,0,0-.316-.654.569.569,0,0,0-.749.049c-.592.438-1.18.882-1.769,1.324-.636.477-.9.441-1.376-.189q-1.023-1.366-2.046-2.732c-.394-.528-.347-.843.178-1.239.588-.444,1.175-.889,1.767-1.327a.715.715,0,0,0,.349-.8.7.7,0,0,0-.669-.5c-.729-.1-1.457-.2-2.184-.311-.656-.1-.856-.345-.767-1q.244-1.787.517-3.57a.7.7,0,0,1,.917-.679c.754.106,1.508.209,2.26.329a.7.7,0,0,0,.78-.286.7.7,0,0,0-.1-.857c-.446-.587-.893-1.173-1.321-1.772a5.071,5.071,0,0,1-.346-.669l.042-.139c-.834.123-1.681.188-2.5.378a11.033,11.033,0,0,0-8.43,9.24,10.946,10.946,0,0,0,4.643,10.782,10.855,10.855,0,0,1,1.479,1.238,3.931,3.931,0,0,1,1.039,2.65c.025.892,0,1.786.012,2.679a1.318,1.318,0,0,0,1.414,1.443q2.538.021,5.076,0a1.307,1.307,0,0,0,1.411-1.438c0-.789-.009-1.579,0-2.368a4.536,4.536,0,0,1,1.967-3.806c.513-.369,1.018-.748,1.566-1.15l.865.97a14.055,14.055,0,0,1-1.219.928,3.635,3.635,0,0,0-1.871,3.6c.041.631.009,1.268.006,1.9a2.68,2.68,0,0,1-1.079,2.176.7.7,0,0,0-.226.469c-.021.931-.053,1.866,0,2.794a2.8,2.8,0,0,1-2.339,3.189ZM-667.1,675.21l-.12.8c-.059.4-.1.8-.181,1.188a1.89,1.89,0,0,1-1.469,1.532,1.9,1.9,0,0,1-2.057-.75c-.391-.49-.756-1-1.144-1.52l-2.1,1.582.568.761c.178.238.361.473.534.714a1.986,1.986,0,0,1,.153,2.288,1.949,1.949,0,0,1-2.063.913c-.594-.086-1.189-.163-1.8-.247-.07.465-.136.885-.194,1.306s-.112.856-.168,1.294c.283.042.512.073.74.109.446.07.9.12,1.335.221a1.839,1.839,0,0,1,1.452,1.451,1.841,1.841,0,0,1-.615,1.928c-.519.441-1.076.838-1.644,1.277.267.359.52.7.774,1.038s.524.7.8,1.063c.514-.385,1-.751,1.484-1.11a1.942,1.942,0,0,1,1.64-.39,2,2,0,0,1,1.528,2.449c-.086.545-.155,1.093-.237,1.671l2.584.369c.032-.178.059-.314.08-.451.081-.537.134-1.079.244-1.61a1.938,1.938,0,0,1,1.929-1.538,1.971,1.971,0,0,1,1.616.85c.369.489.737.98,1.11,1.477l2.1-1.583c-.371-.5-.73-.969-1.08-1.447a2.012,2.012,0,0,1-.172-2.321,2.032,2.032,0,0,1,2.148-.9c.558.087,1.118.159,1.716.242l.374-2.6-.571-.092c-.5-.077-1-.131-1.49-.236a1.838,1.838,0,0,1-1.462-1.4,1.832,1.832,0,0,1,.583-1.971c.526-.452,1.093-.855,1.662-1.3l-.778-1.041-.789-1.052c-.6.434-1.14.872-1.725,1.246a1.934,1.934,0,0,1-2.655-.6,2.376,2.376,0,0,1-.254-1.757c.073-.494.142-.989.216-1.509-.725-.107-1.412-.21-2.1-.309C-666.754,675.236-666.907,675.229-667.1,675.21Zm-16.3,23.409A4.028,4.028,0,0,1-688,700.7a3.987,3.987,0,0,1-2.925-3.69,3.844,3.844,0,0,1,.734-2.4,3.981,3.981,0,0,1,2.72-1.666l-.5-2.084c-.031.089-.062.158-.081.23a1.338,1.338,0,0,1-2.284.842c-.381-.261-.761-.524-1.09-.751l-1.221,1.212c.266.388.556.8.833,1.219a1.318,1.318,0,0,1-.843,2.145c-.51.119-1.023.226-1.527.337v1.562c.5.11.992.213,1.48.324a1.329,1.329,0,0,1,.854,2.211c-.274.4-.551.8-.789,1.151l1.2,1.232c.383-.263.784-.543,1.19-.816a1.322,1.322,0,0,1,2.183.859c.114.5.218,1,.33,1.515h1.553c.119-.551.219-1.045.333-1.535a1.316,1.316,0,0,1,2.161-.852c.416.279.826.568,1.3.9a12.364,12.364,0,0,1,1.02-1.071.574.574,0,0,0,.118-.882.877.877,0,0,0-.1-.163C-682.02,699.9-682.7,699.272-683.406,698.619Zm-3.369.872a2.535,2.535,0,0,0,2.132-1.394.428.428,0,0,0-.073-.6,10.476,10.476,0,0,1-1.985-2.843.59.59,0,0,0-.79-.363,2.628,2.628,0,0,0-2.077,2.816A2.658,2.658,0,0,0-686.774,699.491Zm13.813,10.606h-5.261c0,.24-.01.446,0,.651a1.313,1.313,0,0,0,1.324,1.3q1.314.026,2.63,0a1.3,1.3,0,0,0,1.3-1.228C-672.949,710.585-672.962,710.353-672.962,710.1Zm-.024-1.371v-1.263h-5.21v1.263Z" transform="translate(0 -1.613)" fill="#fff"/>
      <path id="Caminho_516" data-name="Caminho 516" d="M-622.612,672l1.347,5.276-1.269.336-1.342-5.251,1.109-.362Z" transform="translate(-64.222)" fill="#fff"/>
      <path id="Caminho_517" data-name="Caminho 517" d="M-587.68,744.547l.643,1.018a24.587,24.587,0,0,0-2.03,2.089,7.885,7.885,0,0,0,3.028,11.909,6.7,6.7,0,0,1,2.778,1.964,5.467,5.467,0,0,1,1.15,3.364h-1.273c-.043-.278-.072-.569-.135-.852a3.974,3.974,0,0,0-2.353-2.933,10.951,10.951,0,0,1-3.662-2.47,9.267,9.267,0,0,1,.682-13.167C-588.482,745.151-588.086,744.865-587.68,744.547Z" transform="translate(-92.837 -65.035)" fill="#fff"/>
      <path id="Caminho_518" data-name="Caminho 518" d="M-392.619,943.745l.839-1.016,3.95,3.3-.842,1.013Z" transform="translate(-271.535 -242.698)" fill="#fff"/>
      <path id="Caminho_519" data-name="Caminho 519" d="M-418.84,965.24H-420.1V960.67h1.258Z" transform="translate(-246.901 -258.781)" fill="#fff"/>
      <path id="Caminho_520" data-name="Caminho 520" d="M-377.391,909.653v1.267h-4.571v-1.267Z" transform="translate(-281.088 -213.046)" fill="#fff"/>
      <path id="Caminho_521" data-name="Caminho 521" d="M-509.137,956.13v-1.918h1.266v1.918Z" transform="translate(-167.081 -252.992)" fill="#fff"/>
      <path id="Caminho_522" data-name="Caminho 522" d="M-678.442,707.776l.765-1.071,4.607,3.294-.763,1.076Z" transform="translate(-15.306 -31.112)" fill="#fff"/>
      <path id="Caminho_523" data-name="Caminho 523" d="M-689.024,770.731l5.268-1.319.312,1.28-5.251,1.316Z" transform="translate(-5.819 -87.326)" fill="#fff"/>
      <path id="Caminho_524" data-name="Caminho 524" d="M-462.425,738a5.274,5.274,0,0,1-5.279,5.269,5.3,5.3,0,0,1-5.25-5.272,5.284,5.284,0,0,1,5.271-5.282A5.266,5.266,0,0,1-462.425,738Zm-1.317,0a3.957,3.957,0,0,0-3.915-3.969,3.984,3.984,0,0,0-3.979,3.956,4.007,4.007,0,0,0,3.945,3.96A3.986,3.986,0,0,0-463.743,738Z" transform="translate(-199.517 -54.427)" fill="#fff"/>
    </g>
  </g>
</svg>
