<svg xmlns="http://www.w3.org/2000/svg" width="26.731" height="26.731" viewBox="0 0 26.731 26.731">
  <path id="instagram" d="M13.365,0C9.735,0,9.281.017,7.856.08A9.855,9.855,0,0,0,4.611.7,6.545,6.545,0,0,0,2.243,2.243,6.521,6.521,0,0,0,.7,4.611,9.827,9.827,0,0,0,.08,7.856C.013,9.281,0,9.735,0,13.365s.017,4.084.08,5.51A9.862,9.862,0,0,0,.7,22.12a6.555,6.555,0,0,0,1.541,2.368,6.536,6.536,0,0,0,2.368,1.541,9.868,9.868,0,0,0,3.244.621c1.426.067,1.879.08,5.51.08s4.084-.017,5.51-.08a9.89,9.89,0,0,0,3.244-.621,6.831,6.831,0,0,0,3.909-3.909,9.862,9.862,0,0,0,.621-3.244c.067-1.426.08-1.879.08-5.51s-.017-4.084-.08-5.51a9.884,9.884,0,0,0-.621-3.244,6.56,6.56,0,0,0-1.541-2.368A6.512,6.512,0,0,0,22.12.7,9.833,9.833,0,0,0,18.875.08C17.45.013,17,0,13.365,0Zm0,2.406c3.567,0,3.993.018,5.4.079a7.364,7.364,0,0,1,2.48.462,4.4,4.4,0,0,1,2.537,2.536,7.379,7.379,0,0,1,.46,2.48c.063,1.41.078,1.833.078,5.4s-.017,3.993-.082,5.4a7.522,7.522,0,0,1-.469,2.48,4.244,4.244,0,0,1-1,1.539,4.17,4.17,0,0,1-1.537,1,7.434,7.434,0,0,1-2.489.46c-1.419.063-1.837.078-5.412.078s-3.994-.017-5.412-.082a7.579,7.579,0,0,1-2.49-.469,4.139,4.139,0,0,1-1.536-1,4.058,4.058,0,0,1-1-1.537,7.585,7.585,0,0,1-.468-2.489c-.05-1.4-.068-1.837-.068-5.4s.018-3.994.068-5.414a7.576,7.576,0,0,1,.468-2.488,3.962,3.962,0,0,1,1-1.538,3.953,3.953,0,0,1,1.536-1A7.4,7.4,0,0,1,7.9,2.439c1.42-.05,1.838-.067,5.412-.067l.05.033Zm0,4.1a6.863,6.863,0,1,0,6.863,6.863A6.863,6.863,0,0,0,13.365,6.5Zm0,11.318a4.455,4.455,0,1,1,4.455-4.455A4.454,4.454,0,0,1,13.365,17.821ZM22.1,6.232a1.6,1.6,0,1,1-1.6-1.6A1.6,1.6,0,0,1,22.1,6.232Z" fill="#fff"/>
</svg>
