<svg xmlns="http://www.w3.org/2000/svg" width="23.39" height="23.39" viewBox="0 0 23.39 23.39">
  <path id="linkedin" d="M21.719,2.25H1.665A1.678,1.678,0,0,0,0,3.936V23.953A1.678,1.678,0,0,0,1.665,25.64H21.719a1.682,1.682,0,0,0,1.671-1.686V3.936A1.682,1.682,0,0,0,21.719,2.25ZM7.069,22.3H3.6V11.136H7.074V22.3ZM5.336,9.611A2.01,2.01,0,1,1,7.346,7.6a2.011,2.011,0,0,1-2.01,2.01ZM20.064,22.3H16.6v-5.43c0-1.295-.026-2.96-1.8-2.96-1.806,0-2.083,1.41-2.083,2.866V22.3H9.246V11.136h3.326V12.66h.047a3.651,3.651,0,0,1,3.284-1.8c3.508,0,4.161,2.313,4.161,5.32Z" transform="translate(0 -2.25)" fill="#fff"/>
</svg>
