<svg id="personalizacao" xmlns="http://www.w3.org/2000/svg" xmlns:xlink="http://www.w3.org/1999/xlink" width="96" height="96" viewBox="0 0 96 96">
  <defs>
    <clipPath id="clip-path">
      <rect id="Rectangle" width="96" height="96" rx="6" fill="#a2a2a2"/>
    </clipPath>
  </defs>
  <rect id="Rectangle-2" data-name="Rectangle" width="96" height="96" rx="6" fill="#a2a2a2"/>
  <g id="background" clip-path="url(#clip-path)">
    <g id="Color_Primary" data-name="Color/Primary" transform="translate(0 -0.933)">
      <rect id="Rectangle-3" data-name="Rectangle" width="96" height="96" fill="#6c41ff"/>
    </g>
  </g>
  <g id="Grupo_8" data-name="Grupo 8" transform="translate(14.412 10.889)">
    <g id="Grupo_7" data-name="Grupo 7">
      <path id="Caminho_104" data-name="Caminho 104" d="M-1037.618,325.864l1.708,7.215h2.382c4.079,0,5.322,1.1,5.823,5.271,1.32,0,2.66.018,4-.006,1.072-.018,1.887.373,1.853,1.519-.031,1.055-.83,1.4-1.835,1.4q-18.907-.016-37.815,0c-1.066,0-1.891-.36-1.867-1.507.023-1.054.813-1.426,1.822-1.408,1.342.025,2.685.006,4.11.006-.029-2.121.486-4.066,2.48-4.742a28.706,28.706,0,0,1,5.637-.761c.07-.213.213-.569.3-.938.466-1.962.919-3.926,1.412-6.045h-3.014q-9.491,0-18.98,0c-4.178-.006-6.584-2.392-6.588-6.549q-.011-18.038,0-36.077c0-4.164,2.4-6.551,6.581-6.553q18.547-.011,37.092.023a2.353,2.353,0,0,0,2.336-1.245c1.1-1.814,2.32-3.556,3.522-5.307,2.038-2.972,5.374-3.919,8.346-2.4,3.008,1.539,4.158,4.858,2.879,8.3-.05.133-.091.27-.171.5.4.052.756.1,1.117.148a5.861,5.861,0,0,1,5.446,6.058q.046,18.474,0,36.947a5.881,5.881,0,0,1-6.253,6.144c-6.858.026-13.716.008-20.574.008Zm25.655-12.686H-1056.2c-.483,0-1.054.15-1.427-.056-.517-.285-1.2-.821-1.231-1.284s.559-1.137,1.048-1.45c.385-.248,1.03-.111,1.559-.111q21.3-.006,42.593,0h1.723v-1.409c0-8.741.009-17.482-.018-26.222A2.579,2.579,0,0,0-1014,279.83c-1.616-.271-3.434-1.013-4.815.668-3.925,4.773-7.828,9.565-11.77,14.324a2.211,2.211,0,0,0-.531,2.072c.916,4.774-2.043,8.6-6.73,8.781-1.156.045-2.316-.034-3.475-.057a6.859,6.859,0,0,0-4.709,1.515c-1.158.955-2.322.61-2.587-.853a38.4,38.4,0,0,1-.867-7.008c.031-4.709,2.431-8.319,6.608-9.03,2.947-.5,4.383-2.1,5.678-4.331.458-.792,1.014-1.527,1.522-2.291.841-1.263,1.68-2.529,2.681-4.036h-1.593q-17.386,0-34.77,0c-2.905,0-3.929,1.019-3.93,3.906q0,12.6,0,25.208c0,.471.04.941.068,1.575,1.323,0,2.564-.014,3.805,0,1.007.016,1.724.461,1.673,1.553-.048,1.016-.758,1.36-1.708,1.346-1.238-.017-2.475,0-3.632,0a2.222,2.222,0,0,0-.177.459c-.015,1.786-.031,3.572-.031,5.359,0,2.978,1,3.965,4.018,3.965q26.657,0,53.314,0a10.233,10.233,0,0,0,1.3-.033,2.836,2.836,0,0,0,2.656-2.632C-1011.882,317.992-1011.963,315.68-1011.963,313.178Zm-16.3-25.738c3.323-4.057,6.571-7.938,9.694-11.918a4.189,4.189,0,0,0,.7-2.675,3.12,3.12,0,0,0-2.562-2.795,3.384,3.384,0,0,0-3.727,1.6c-2.727,4.032-5.421,8.085-8.12,12.135a2.522,2.522,0,0,0-.2.536Zm-18.135,15.773c2.658-.158,4.989-.3,7.319-.434.578-.032,1.162,0,1.736-.057a3.723,3.723,0,0,0,3.346-2.95c.283-1.572.352-3.221-1.348-4.2-1.2-.7-2.245-1.667-3.4-2.453a2.774,2.774,0,0,0-1.427-.521,5.93,5.93,0,0,0-6.178,5.178A38.416,38.416,0,0,0-1046.4,303.213Zm-8.026,35.062h23.623c.069-1.855-.289-2.283-1.974-2.286q-9.827-.016-19.655,0C-1054.124,335.992-1054.479,336.407-1054.422,338.275Zm8.161-5.318h7.322l-1.683-7.023h-4Zm9.3-42.179,3.7,2.737,3.146-3.819-4.088-3.039Z" transform="translate(1076.194 -267.038)" fill="#fff"/>
      <path id="Caminho_105" data-name="Caminho 105" d="M-1062.9,312.219c.258.41.729.831.707,1.225a1.3,1.3,0,0,1-.937.9,1.3,1.3,0,0,1-.94-.891c-.025-.393.444-.818.7-1.228Z" transform="translate(1075.758 -268.652)" fill="#fff"/>
    </g>
  </g>
</svg>
