<svg xmlns="http://www.w3.org/2000/svg" xmlns:xlink="http://www.w3.org/1999/xlink" width="16" height="16" viewBox="0 0 16 16">
  <defs>
    <clipPath id="clip-path">
      <path id="Fill_1" data-name="Fill 1" d="M7.072,8.6C4.341,5.874,4.731,5.484,4.731,5.484L5.9,4.313a1.1,1.1,0,0,0,0-1.56L3.474.325A1.1,1.1,0,0,0,1.968.273,5.744,5.744,0,0,0,.049,3.143c-.39,1.95,1.561,4.681,4.681,7.8s5.852,5.071,7.8,4.681a5.744,5.744,0,0,0,2.87-1.919,1.1,1.1,0,0,0-.052-1.506L12.923,9.775a1.1,1.1,0,0,0-1.56,0l-1.17,1.171s-.39.39-3.121-2.341" transform="translate(0)" fill="#dbdbdb"/>
    </clipPath>
  </defs>
  <g id="phone" transform="translate(-44 91)">
    <g id="icon_Social_Phone_main" data-name="icon/Social/Phone/main" transform="translate(44 -91)">
      <rect id="icon_Social_Phone_main_background" data-name="icon/Social/Phone/main background" width="16" height="16" fill="none"/>
      <g id="Grupo_4" data-name="Grupo 4" transform="translate(0 0)">
        <path id="Fill_1-2" data-name="Fill 1" d="M7.072,8.6C4.341,5.874,4.731,5.484,4.731,5.484L5.9,4.313a1.1,1.1,0,0,0,0-1.56L3.474.325A1.1,1.1,0,0,0,1.968.273,5.744,5.744,0,0,0,.049,3.143c-.39,1.95,1.561,4.681,4.681,7.8s5.852,5.071,7.8,4.681a5.744,5.744,0,0,0,2.87-1.919,1.1,1.1,0,0,0-.052-1.506L12.923,9.775a1.1,1.1,0,0,0-1.56,0l-1.17,1.171s-.39.39-3.121-2.341" transform="translate(0)" fill="#dbdbdb"/>
        <g id="Grupo_de_máscara_4" data-name="Grupo de máscara 4" clip-path="url(#clip-path)">
          <g id="Color_Primary" data-name="Color/Primary" transform="translate(0 0)">
            <rect id="Rectangle" width="16" height="16" fill="#6c41ff"/>
          </g>
        </g>
      </g>
    </g>
  </g>
</svg>
