<svg id="seguranca" xmlns="http://www.w3.org/2000/svg" xmlns:xlink="http://www.w3.org/1999/xlink" width="96" height="96" viewBox="0 0 96 96">
  <defs>
    <clipPath id="clip-path">
      <rect id="Rectangle" width="96" height="96" rx="6" fill="#a2a2a2"/>
    </clipPath>
  </defs>
  <g id="background">
    <rect id="Rectangle-2" data-name="Rectangle" width="96" height="96" rx="6" fill="#a2a2a2"/>
    <g id="background-2" data-name="background" clip-path="url(#clip-path)">
      <g id="Color_Primary" data-name="Color/Primary" transform="translate(0 -0.933)">
        <rect id="Rectangle-3" data-name="Rectangle" width="96" height="96" fill="#6c41ff"/>
      </g>
    </g>
  </g>
  <g id="Grupo_14" data-name="Grupo 14" transform="translate(11.162 11.183)">
    <g id="Grupo_13" data-name="Grupo 13">
      <path id="Caminho_109" data-name="Caminho 109" d="M-1026.124,582.476a4.659,4.659,0,0,0-.979.015,1.1,1.1,0,0,0-.686.384,3.882,3.882,0,0,1-2.6,2.047,3.976,3.976,0,0,1-1.086.133c-2.443.021-4.889.016-7.333.006a1.848,1.848,0,0,0-1.134.4c-2.561,1.772-5.2,3.435-7.745,5.226-1.287.906-3.77.161-4.077-1.445a8.619,8.619,0,0,1-.257-1.757c.01-.765,0-1.529,0-2.324-.64-.281-1.337-.095-2.019-.331a4.014,4.014,0,0,1-2.29-1.834c-.21-.356-.443-.589-.881-.525-.047.006-.1,0-.144,0-1.022.119-2.1-.3-3.068.225-.868.471-1.676,1.057-2.5,1.614q-2.753,1.868-5.488,3.761c-1.17.81-3.708.655-4.117-.927a3.8,3.8,0,0,1-.2-.775c-.026-.862-.009-1.725-.009-2.587,0-.384.134-.855-.043-1.122-.139-.21-.674-.127-1.009-.243a4.242,4.242,0,0,1-2.6-2.6,2.113,2.113,0,0,1-.081-.684q-.006-8.843,0-17.686a3.642,3.642,0,0,1,3.441-3.425c1.054-.01,2.109.008,3.163-.005.623-.008.841-.222.869-.815.016-.335,0-.671,0-1.007v-31.92a6.971,6.971,0,0,1,2.964-5.4,7.634,7.634,0,0,1,4.594-1.428q21.927.019,43.855.008a7.239,7.239,0,0,1,7.027,5.192,5.659,5.659,0,0,1,.249,1.616q.006,16.1-.006,32.208c0,1.536.091,1.6,1.59,1.553.814-.027,1.63-.01,2.444,0a3.223,3.223,0,0,1,2.893,1.777,3.851,3.851,0,0,1,.576,2.07c-.025,5.608-.042,11.216.007,16.823a3.972,3.972,0,0,1-2.7,3.716,2.787,2.787,0,0,1-.979.066c-2.109.005-4.218.015-6.326-.006a2.021,2.021,0,0,0-1.268.436c-2.559,1.776-5.163,3.484-7.76,5.206a3.336,3.336,0,0,1-2.8.29,2.636,2.636,0,0,1-1.48-2.22C-1026.139,584.984-1026.124,583.788-1026.124,582.476Zm-40.531-24.456c3.19,0,6.344,0,9.5.006.441,0,.622-.218.839-.577a4.045,4.045,0,0,1,3.674-2.017q10.572,0,21.144-.005a4.017,4.017,0,0,1,3.6,1.938,1.163,1.163,0,0,0,1.2.655h14.068V534.773h-54.025ZM-1012.6,532.1c0-2.426-.012-4.727.008-7.027a6.037,6.037,0,0,0-.282-1.754,4.663,4.663,0,0,0-4.345-3.293q-22.431.034-44.861.021a4.391,4.391,0,0,0-4.546,4.18,72.767,72.767,0,0,0-.065,7.873Zm-14.625,28.218v19.851c1.239,0,2.431.009,3.622,0a.883.883,0,0,1,.964.605c.185.417.363.712-.029,1.07-.218.2-.423.416-.627.632-.181.191-.489.385-.5.591-.052.906-.025,1.817-.007,2.726,0,.184.451.338.6.235l5.255-3.552a6.729,6.729,0,0,0-.844.005c-.644.1-.782-.378-1.121-.772-.475-.551.109-.775.175-1.108.093-.469.642-.432,1.077-.431q5.535.009,11.069,0c.288,0,.577.021.863,0,.917-.076,1.318-.495,1.318-1.4q.006-8.552,0-17.106a1.206,1.206,0,0,0-1.231-1.34,6.78,6.78,0,0,0-.862-.005h-19.723Zm-14.788-2.3q-5.461,0-10.924,0c-.955,0-1.373.409-1.377,1.337-.01,1.773,0,3.546,0,5.319q0,8.12,0,16.241c0,1.238.326,1.55,1.595,1.554,1.1,0,2.2-.006,3.306,0,.459,0,1.106.467,1.126.861.025.5.217,1.2-.4,1.377-.776.22-.748.7-.739,1.282.012.719-.006,1.438.007,2.156.007.4.152.488.532.248,1.369-.866,2.723-1.756,4.083-2.635.265-.171.531-.339.8-.509-.293-.135-.586-.269-.879-.407-.04-.019-.073-.054-.112-.075a1.123,1.123,0,0,1-.683-1.438,1.4,1.4,0,0,1,1.138-.862c.288-.011.575,0,.863,0q6.18,0,12.361,0a1.247,1.247,0,0,0,1.047-.268,1.425,1.425,0,0,0,.42-1.132q-.011-10.779-.007-21.559c0-1.146-.351-1.49-1.513-1.492Q-1036.7,558.016-1042.014,558.02Zm-14.952,16.123a39.567,39.567,0,0,0-2.97,2.626,2.555,2.555,0,0,1-3.78-.065c-1.185-1.318-2.513-2.5-3.741-3.784a4.734,4.734,0,0,1-1.537-3.676,5.174,5.174,0,0,0,0-.719,4.008,4.008,0,0,1,2.125-3.833,3.792,3.792,0,0,1,4.445.119,1.016,1.016,0,0,0,1.305.1c1.177-.637,2.327-1.224,3.709-.576.274.128.524.008.512-.426-.031-1.184-.01-2.369-.01-3.588-5.184,0-10.261-.006-15.339,0-1.267,0-1.635.4-1.635,1.658q0,8.27,0,16.542a3.306,3.306,0,0,1-.006.574.692.692,0,0,0,.487.771,3.492,3.492,0,0,0,1.17.29,17.506,17.506,0,0,0,2.156,0,.825.825,0,0,1,.791.48,1.128,1.128,0,0,1-.766,1.816c-.288.078-.4.141-.384.436.02.335-.005.672.006,1.007.025.754.059,1.509.091,2.263.8-.1,1.3-.734,1.935-1.117,1.259-.76,2.453-1.63,3.846-2.571a7.864,7.864,0,0,1-1.229-.01,1.14,1.14,0,0,1-.642-1.846,1.283,1.283,0,0,1,1.114-.454c2.773.018,5.546.008,8.346.008Zm.058-5.054c0-.356.015-.6,0-.833a2.029,2.029,0,0,0-1.009-1.571,2.3,2.3,0,0,0-2.442.794,3.5,3.5,0,0,1-.488.653c-.229.211-.542.531-.773.5a3.673,3.673,0,0,1-1.189-.561c-.087-.05-.068-.258-.142-.362a2.561,2.561,0,0,0-1.163-.93c-.687-.27-1.742-.13-1.977.385-.255.558-.709,1.063-.6,1.761a3.89,3.89,0,0,0,.713,1.986c1.24,1.386,2.605,2.664,3.937,3.967a.485.485,0,0,0,.469.019,27.491,27.491,0,0,0,2.112-1.823c.623-.622,1.131-1.356,1.741-1.993A2.308,2.308,0,0,0-1056.908,569.09Z" transform="translate(1076.474 -517.447)" fill="#fff"/>
      <path id="Caminho_110" data-name="Caminho 110" d="M-1030.065,527c-1.185,0-2.37-.035-3.553.013a4.218,4.218,0,0,1-2-.592,2.533,2.533,0,0,1-.775-2.4,2.263,2.263,0,0,1,.868-1.408,3.153,3.153,0,0,1,1.672-.482c2.587.021,5.174.007,7.761.01a2.683,2.683,0,0,1,2.258,1.506,2.6,2.6,0,0,1-1.357,3.153,3.535,3.535,0,0,1-1.227.223C-1027.633,526.969-1028.85,527-1030.065,527Zm-.029-3.18c-1.368,0-2.738.007-4.106-.007a.546.546,0,0,0-.547.252.86.86,0,0,0,.733,1.247q4.014.013,8.026,0a.827.827,0,0,0,.74-.839.807.807,0,0,0-.739-.655c-.156-.007-.312,0-.467,0Z" transform="translate(1083.504 -518.953)" fill="#fff"/>
      <path id="Caminho_111" data-name="Caminho 111" d="M-1050.572,524.547a2.255,2.255,0,0,1-2.317,2.434,2.352,2.352,0,0,1-2.365-2.463,2.407,2.407,0,0,1,2.381-2.38,2.539,2.539,0,0,1,1.724.811A1.714,1.714,0,0,1-1050.572,524.547Zm-2.308.774a.8.8,0,0,0,.818-.842c0-.375-.409-.67-.913-.655a.893.893,0,0,0-.771.8A.835.835,0,0,0-1052.88,525.321Z" transform="translate(1078.237 -518.956)" fill="#fff"/>
      <path id="Caminho_112" data-name="Caminho 112" d="M-1059.942,524.526a2.3,2.3,0,0,1-2.362,2.453,2.326,2.326,0,0,1-2.328-2.406,1.989,1.989,0,0,1,.6-1.63,2.507,2.507,0,0,1,1.727-.805A2.37,2.37,0,0,1-1059.942,524.526Zm-2.505.793c.585.007.958-.291,1.009-.7a.879.879,0,0,0-.768-.8c-.5-.016-.956.286-.9.649a1.577,1.577,0,0,0,.319.691C-1062.7,525.281-1062.486,525.3-1062.447,525.319Z" transform="translate(1077.456 -518.956)" fill="#fff"/>
      <path id="Caminho_113" data-name="Caminho 113" d="M-1022.623,566.994c-.829,0-1.6,0-2.377,0a1.151,1.151,0,0,1-.958-.807c-.036-.3.51-.861.866-.871.468-.014.935,0,1.4,0h1.066v-1.42c0-.343-.008-.686,0-1.029a.781.781,0,0,1,.661-.732.843.843,0,0,1,.83.75c.008.779,0,1.558,0,2.43.67,0,1.345-.008,2.019,0a1.778,1.778,0,0,1,.609.107.787.787,0,0,1,.543,1.055.942.942,0,0,1-.874.508,12.086,12.086,0,0,1-1.215.009h-1.082c0,.828.005,1.63,0,2.432a.846.846,0,0,1-.832.748.776.776,0,0,1-.659-.734C-1022.629,568.638-1022.623,567.834-1022.623,566.994Z" transform="translate(1082.994 -512.28)" fill="#fff"/>
      <path id="Caminho_114" data-name="Caminho 114" d="M-1040.8,563.713c.406,0,.752-.018,1.1,0a2.682,2.682,0,0,1,2.475,1.6c.134.294.1.68.273.937a.672.672,0,0,1-.1.913c-.038.049,0,.153-.006.23-.077.945-.139,1.892-.239,2.834a5.257,5.257,0,0,1-.723,2.274,2.31,2.31,0,0,1-1.879,1.059c-2.031.055-4.065.028-6.1.008a2.007,2.007,0,0,1-.949-.241c-.327-.19-.542-.271-.883,0a1.51,1.51,0,0,1-1.063.262c-.623-.043-1.25,0-1.875-.014-.485-.008-.953.077-1.382-.367a2.665,2.665,0,0,1-.883-1.87c-.014-1.8,0-3.6-.007-5.394a2.806,2.806,0,0,1,1.252-2.174c.094-.081.29-.057.44-.058.9,0,1.8-.026,2.7.011a4.2,4.2,0,0,1,.942.262c.161.047.4.182.467.123a.932.932,0,0,0,.3-.563c.037-.623.019-1.25.013-1.875a3.757,3.757,0,0,1,.5-1.67c.389-.82,1.172-.884,1.824-1.247a2.1,2.1,0,0,1,2.262.334,2.827,2.827,0,0,1,1.332,1.887A19.906,19.906,0,0,1-1040.8,563.713Zm-2.25,7.988c.821,0,1.642.014,2.461,0a1.147,1.147,0,0,0,1.179-1.151c.016-.273-.111-.642.024-.8.394-.464.18-.968.2-1.445.022-.53.338-.981.268-1.546-.09-.734-.342-1.1-1.077-1.155-.389-.029-.781,0-1.173-.007a1.788,1.788,0,0,1-1.763-1.783c-.012-.781,0-1.563,0-2.345a.9.9,0,0,0-.61-.772.778.778,0,0,0-.946.211,1.92,1.92,0,0,0-.563,1.3c.016.7.012,1.407,0,2.11a1.61,1.61,0,0,1-.954,1.517c-.162.081-.324.16-.489.235a.68.68,0,0,0-.442.711,25.233,25.233,0,0,1-.014,3.045,1.379,1.379,0,0,0,1.152,1.721,3.181,3.181,0,0,0,.635.156C-1044.454,571.714-1043.75,571.7-1043.047,571.7Zm-6.008-6.068h-1.862c0,1.989,0,3.937,0,5.886a.209.209,0,0,0,.037.1c.02.032.05.058.034.04h1.789Z" transform="translate(1078.992 -512.195)" fill="#fff"/>
    </g>
  </g>
</svg>
