<svg id="user-experience" xmlns="http://www.w3.org/2000/svg" xmlns:xlink="http://www.w3.org/1999/xlink" width="96" height="96" viewBox="0 0 96 96">
  <defs>
    <clipPath id="clip-path">
      <rect id="Rectangle" width="96" height="96" rx="6" fill="#a2a2a2"/>
    </clipPath>
  </defs>
  <g id="background">
    <rect id="Rectangle-2" data-name="Rectangle" width="96" height="96" rx="6" fill="#a2a2a2"/>
    <g id="background-2" data-name="background" clip-path="url(#clip-path)">
      <g id="Color_Primary" data-name="Color/Primary" transform="translate(0 -0.933)">
        <rect id="Rectangle-3" data-name="Rectangle" width="96" height="96" fill="#6c41ff"/>
      </g>
    </g>
  </g>
  <g id="ic_money" data-name="ic/money" transform="translate(16 12.874)">
    <rect id="ic_protection_background" data-name="ic/protection background" width="64" height="64" transform="translate(0 2.192)" fill="none"/>
    <g id="Grupo_54" data-name="Grupo 54" transform="translate(171.49 9419.246)">
      <g id="Grupo_16" data-name="Grupo 16" transform="translate(-166.582 -9419.246)">
        <path id="Caminho_115" data-name="Caminho 115" d="M-1055.222,660.73v-1.766c0-5.8.014-11.608-.008-17.41a4.717,4.717,0,0,1,2.236-4.265A5.25,5.25,0,0,1-1050,636.6q10.64.02,21.279.007c2.331,0,4.666.085,6.992-.023a4.744,4.744,0,0,1,4.991,5.048c-.054.888-.008,1.779-.008,2.76.43.1.8.184,1.174.264a4.712,4.712,0,0,1,2.737,7.571c-.492.617-1.074,1.161-1.69,1.82,1.576,1.115,2.745,2.463,2.752,4.484.006,2.045-1.336,3.331-2.79,4.708,1.646,1.156,2.829,2.543,2.789,4.619-.039,2.036-1.446,3.282-2.78,4.612.388.307.7.542,1,.794a4.648,4.648,0,0,1,.5,6.864c-.929,1.03-1.928,2-2.94,2.951a2.152,2.152,0,0,0-.773,1.823c.059,1.038.026,2.083.011,3.124-.042,2.787-1.39,4.363-4.183,4.911a3.119,3.119,0,0,0-.358.127,9.446,9.446,0,0,0-.228.936,16.973,16.973,0,0,1-6.761,11.47,36.867,36.867,0,0,1-3.49,2.263,1.33,1.33,0,0,1-2.048-.418,1.328,1.328,0,0,1,.553-1.911c.771-.537,1.6-.993,2.389-1.506a14.535,14.535,0,0,0,6.555-9.862,8.127,8.127,0,0,0,.056-.984h-23.147c.024.447.05.871.071,1.3.052.988.146,1.978.139,2.967-.007,1.089-.595,1.756-1.416,1.745s-1.333-.637-1.407-1.77c-.081-1.236-.048-2.489-.25-3.7a15.573,15.573,0,0,0-4.105-8.265,3,3,0,0,1-.857-2.262c.03-5.108.018-10.217.012-15.326a6.233,6.233,0,0,0-2.884-5.548,6.448,6.448,0,0,0-1.748-.794c-1.077-.307-1.473.012-1.535,1.115-.023.4-.006.794-.006,1.191q0,18.079,0,36.159a9.477,9.477,0,0,1-.054,1.484,1.231,1.231,0,0,1-1.232,1.082,1.312,1.312,0,0,1-1.415-1.053,3.25,3.25,0,0,1-.051-.739q0-19.271.014-38.541a3.487,3.487,0,0,1,4.552-3.473,19.127,19.127,0,0,1,3.13,1.3A10.368,10.368,0,0,1-1055.222,660.73Zm2.859-8.011v29.516c2.039.314,26.787.216,27.89-.126-1-2.784.543-4.695,2.451-6.436-.211-.2-.3-.31-.416-.395-2.874-2.17-3.12-5.179-.634-7.753.336-.348.657-.709,1-1.084a3.723,3.723,0,0,0-.354-.366c-2.937-2.237-3.146-5.186-.558-7.856.324-.335.63-.685.954-1.037-.5-.394-.877-.645-1.2-.946a4.638,4.638,0,0,1-.719-6.083,18.827,18.827,0,0,1,1.582-1.767c.271-.3.529-.613.917-1.064h-30.914v2.635h1.563q3.57,0,7.139,0a7.848,7.848,0,0,1,1.187.045,1.364,1.364,0,0,1,1.192,1.309,1.413,1.413,0,0,1-1.152,1.364,6.733,6.733,0,0,1-1.186.041C-1046.492,652.72-1049.366,652.719-1052.362,652.719Zm-.08-8.55c.214.108.3.188.383.188q15.7.024,31.392.035c.3,0,.592-.031.887-.054.041,0,.08-.049.116-.08s.067-.073.133-.146c.01-.207.028-.451.03-.7,0-.595.019-1.191,0-1.786a2,2,0,0,0-2.177-2.253c-.3-.016-.6,0-.892,0h-26.781a9.844,9.844,0,0,0-1.337.031,1.838,1.838,0,0,0-1.733,1.751C-1052.507,642.176-1052.443,643.211-1052.443,644.17Zm32.939,41.079h-31.154l2.578,4.946h26.006c.2,0,.4.011.594-.006a1.931,1.931,0,0,0,1.966-2C-1019.463,687.258-1019.5,686.319-1019.5,685.248Zm4.87-8.037a1.933,1.933,0,0,0-.994-1.964,1.8,1.8,0,0,0-2.2.266c-1.218,1.157-2.422,2.331-3.563,3.562a1.911,1.911,0,0,0,0,2.68,1.9,1.9,0,0,0,2.786-.008c1.19-1.113,2.34-2.273,3.45-3.467A3.4,3.4,0,0,0-1014.634,677.211Zm-7.273-15.586a1.978,1.978,0,0,0,1.09,2.1,1.816,1.816,0,0,0,2.183-.385c1.14-1.1,2.269-2.208,3.358-3.355a1.976,1.976,0,0,0,.148-2.8,1.927,1.927,0,0,0-2.889.066c-1.114,1.052-2.2,2.137-3.244,3.258A4.683,4.683,0,0,0-1021.907,661.625Zm-.007-9.16a1.98,1.98,0,0,0,1.024,2.009,1.78,1.78,0,0,0,2.192-.3c1.182-1.125,2.347-2.271,3.467-3.455a1.962,1.962,0,0,0,.057-2.8,1.9,1.9,0,0,0-2.78.063q-1.732,1.621-3.351,3.36A4.122,4.122,0,0,0-1021.914,652.465Zm7.273,15.591a1.938,1.938,0,0,0-1.057-2.064,1.821,1.821,0,0,0-2.188.353c-1.172,1.134-2.345,2.271-3.459,3.461a1.948,1.948,0,0,0,.009,2.79,1.874,1.874,0,0,0,2.676-.024c1.2-1.107,2.343-2.271,3.459-3.459A3.8,3.8,0,0,0-1014.641,668.056Z" transform="translate(1064.154 -636.583)" fill="#fff"/>
        <path id="Caminho_116" data-name="Caminho 116" d="M-1063.092,712.695a.993.993,0,0,1,1,.984,1.04,1.04,0,0,1-1.034,1.079,1.062,1.062,0,0,1-1.005-1.116A1.006,1.006,0,0,1-1063.092,712.695Z" transform="translate(1064.148 -643.298)" fill="#fff"/>
        <path id="Caminho_117" data-name="Caminho 117" d="M-1035.989,657.038A7.039,7.039,0,0,1-1029,664a7.107,7.107,0,0,1-7.033,7.071,7.04,7.04,0,0,1-7.017-7.055A6.979,6.979,0,0,1-1035.989,657.038Zm4.847,7.055a4.908,4.908,0,0,0-4.815-4.983,4.993,4.993,0,0,0-5.015,4.931,4.94,4.94,0,0,0,4.908,4.9A4.855,4.855,0,0,0-1031.142,664.093Z" transform="translate(1064.097 -635.349)" fill="#fff"/>
        <path id="Caminho_118" data-name="Caminho 118" d="M-1033.669,652.393a1.02,1.02,0,0,1-1.024,1.078,1.079,1.079,0,0,1-1.033-.982,1.036,1.036,0,0,1,1.046-1.063A.974.974,0,0,1-1033.669,652.393Z" transform="translate(1061.744 -637.894)" fill="#fff"/>
        <path id="Caminho_119" data-name="Caminho 119" d="M-1033.389,693.627a1.055,1.055,0,0,1-1.073-1.024,1.021,1.021,0,0,1,.925-1.045,1.007,1.007,0,0,1,1.118.953A1.034,1.034,0,0,1-1033.389,693.627Z" transform="translate(1061.634 -641.43)" fill="#fff"/>
        <path id="Caminho_120" data-name="Caminho 120" d="M-1034.648,666.171c.558-.6,1.056-1.148,1.563-1.685a3.813,3.813,0,0,1,.57-.528.983.983,0,0,1,1.4.136.933.933,0,0,1,.02,1.314q-1.446,1.538-2.987,2.987a.957.957,0,0,1-1.4-.079,16.41,16.41,0,0,1-1.337-1.335,1.064,1.064,0,0,1-.056-1.5,1.044,1.044,0,0,1,1.495,0C-1035.182,665.644-1035.005,665.835-1034.648,666.171Z" transform="translate(1062.057 -637.007)" fill="#fff"/>
      </g>
    </g>
  </g>
</svg>
