<svg xmlns="http://www.w3.org/2000/svg" width="175.598" height="55.73" viewBox="0 0 175.598 55.73">
  <g id="becode-logo" transform="translate(0 0)">
    <g id="Grupo_76" data-name="Grupo 76" transform="translate(0 0)">
      <g id="Grupo_55" data-name="Grupo 55" transform="translate(0 1.529)">
        <path id="Caminho_434" data-name="Caminho 434" d="M12.745,42.566H0V8.4H12.255c7.206,0,10.833,3.922,10.833,8.676,0,4.315-2.7,6.813-5.981,7.893A8.528,8.528,0,0,1,23.871,33.4c0,5.147-4.069,9.167-11.128,9.167Zm-.883-30.49h-7.4V23.155h7.5c4.166,0,6.569-2.059,6.569-5.539s-2.3-5.539-6.666-5.539Zm.344,14.755H4.461V38.89h7.893c4.412,0,7.059-2.205,7.059-5.932s-2.844-6.127-7.206-6.127Z" transform="translate(0 -8.351)" fill="#fff"/>
        <path id="Caminho_435" data-name="Caminho 435" d="M178.362,11.816H164.441V23.237h12.452v3.676H164.441V38.677h13.921v3.676H159.98V8.14h18.382Z" transform="translate(-129.929 -8.14)" fill="#fff"/>
      </g>
      <path id="Caminho_436" data-name="Caminho 436" d="M288.64,15.484a17.134,17.134,0,0,1,1.957-6.1,17.914,17.914,0,0,1,3.894-4.908A18.171,18.171,0,0,1,299.86,1.2a17.915,17.915,0,0,1,16.289,1.751l-3.043,4.563a10.947,10.947,0,0,0-3.2-1.589,12.288,12.288,0,0,0-3.618-.53A11.781,11.781,0,0,0,302,6.176a12.635,12.635,0,0,0-6.358,5.346,11.48,11.48,0,0,0-1.475,3.963h-5.53Z" transform="translate(-234.422 0)" fill="#fff"/>
      <path id="Caminho_437" data-name="Caminho 437" d="M306.9,120.447a11.692,11.692,0,0,0,6.82-2.074l3.043,4.495a17.946,17.946,0,0,1-4.7,2.217,17.675,17.675,0,0,1-5.162.755,17.4,17.4,0,0,1-6.221-1.12,17.888,17.888,0,0,1-9.193-7.752,16.526,16.526,0,0,1-2.1-5.829h5.53a12.785,12.785,0,0,0,1.683,3.732,12.622,12.622,0,0,0,2.7,2.949,12.182,12.182,0,0,0,3.5,1.935,12.058,12.058,0,0,0,4.1.691Z" transform="translate(-235.031 -90.264)" fill="#fff"/>
      <path id="Caminho_438" data-name="Caminho 438" d="M667.965,5.28a17.467,17.467,0,0,1,9.195,9.195,16.62,16.62,0,0,1,1.358,6.681,16.486,16.486,0,0,1-1.221,6.405,17.352,17.352,0,0,1-8.318,9.054,16.529,16.529,0,0,1-6.176,1.728V32.905a11.6,11.6,0,0,0,4.055-1.29,11.728,11.728,0,0,0,3.272-2.579,12.164,12.164,0,0,0,2.188-3.6,11.821,11.821,0,0,0-.118-8.872,11.918,11.918,0,0,0-2.542-3.757,12.2,12.2,0,0,0-3.789-2.556,11.471,11.471,0,0,0-4.621-.945h-5.359V32.858H650.5V3.92h10.782a16.615,16.615,0,0,1,6.681,1.36Z" transform="translate(-528.311 -3.184)" fill="#fff"/>
      <path id="Caminho_439" data-name="Caminho 439" d="M816.09,4.17h22.3v5.3H821.389v7.6h-5.3Z" transform="translate(-662.796 -3.387)" fill="#fff"/>
      <path id="Caminho_440" data-name="Caminho 440" d="M821.389,101.81V112.5h17.005v5.3h-22.3V101.81Z" transform="translate(-662.796 -82.686)" fill="#fff"/>
      <rect id="Retângulo_4" data-name="Retângulo 4" width="9.262" height="5.299" transform="translate(164.122 13.825)" fill="#fff"/>
      <g id="Grupo_56" data-name="Grupo 56" transform="translate(9.174 44.42)">
        <path id="Caminho_441" data-name="Caminho 441" d="M48.84,245.1H53.62v.749H51.7v6.31h-.922v-6.31H48.84Z" transform="translate(-48.84 -243.481)" fill="#fff"/>
        <path id="Caminho_442" data-name="Caminho 442" d="M92.738,245.8H89.862v2.359h2.572v.759H89.862v2.431h2.876v.759h-3.8V245.04h3.8v.759Z" transform="translate(-81.408 -243.432)" fill="#fff"/>
        <path id="Caminho_443" data-name="Caminho 443" d="M126.914,244.61a3.321,3.321,0,0,1,3.27,2.138h-1.1a2.221,2.221,0,0,0-2.168-1.326,2.809,2.809,0,0,0,0,5.6,2.23,2.23,0,0,0,2.168-1.317h1.1a3.319,3.319,0,0,1-3.27,2.117,3.607,3.607,0,0,1,0-7.211Z" transform="translate(-109.387 -243.083)" fill="#fff"/>
        <path id="Caminho_444" data-name="Caminho 444" d="M181,245.04v7.068h-.922l-3.706-5.62v5.62h-.922V245.04h.922l3.706,5.611V245.04Z" transform="translate(-151.668 -243.432)" fill="#fff"/>
        <path id="Caminho_445" data-name="Caminho 445" d="M223.695,251.879a3.605,3.605,0,1,1,3.545-3.6A3.482,3.482,0,0,1,223.695,251.879Zm0-.8a2.812,2.812,0,1,0-2.6-2.8A2.579,2.579,0,0,0,223.695,251.079Z" transform="translate(-187.971 -243.132)" fill="#fff"/>
        <path id="Caminho_446" data-name="Caminho 446" d="M273.892,245.1v6.31h2.47v.749H272.97V245.1h.922Z" transform="translate(-230.87 -243.481)" fill="#fff"/>
        <path id="Caminho_447" data-name="Caminho 447" d="M306.595,251.879a3.605,3.605,0,1,1,3.545-3.6A3.482,3.482,0,0,1,306.595,251.879Zm0-.8a2.812,2.812,0,1,0-2.6-2.8A2.579,2.579,0,0,0,306.595,251.079Z" transform="translate(-255.299 -243.132)" fill="#fff"/>
        <path id="Caminho_448" data-name="Caminho 448" d="M360.836,246.8h-1.1a2.252,2.252,0,0,0-2.147-1.3,2.775,2.775,0,0,0,0,5.539,2.381,2.381,0,0,0,2.481-2.288H357.25V248h3.8v.708a3.423,3.423,0,0,1-3.464,3.159,3.6,3.6,0,0,1,0-7.2,3.341,3.341,0,0,1,3.251,2.126Z" transform="translate(-296.711 -243.132)" fill="#fff"/>
        <path id="Caminho_449" data-name="Caminho 449" d="M406.44,245.1h.922v7.057h-.922Z" transform="translate(-339.269 -243.481)" fill="#fff"/>
        <path id="Caminho_450" data-name="Caminho 450" d="M430.569,250.767H427.49l-.567,1.57h-.973l2.551-7.018h1.063l2.541,7.018h-.973l-.567-1.57Zm-1.538-4.315-1.275,3.565h2.551l-1.275-3.565Z" transform="translate(-355.114 -243.659)" fill="#fff"/>
        <path id="Caminho_451" data-name="Caminho 451" d="M500.1,245.8h-2.876v2.359h2.572v.759h-2.572v2.431H500.1v.759h-3.8V245.04h3.8v.759Z" transform="translate(-412.25 -243.432)" fill="#fff"/>
        <path id="Caminho_452" data-name="Caminho 452" d="M555.6,245.1h.922v7.057H555.6Z" transform="translate(-460.411 -243.481)" fill="#fff"/>
        <path id="Caminho_453" data-name="Caminho 453" d="M583.021,245.04v7.068H582.1l-3.706-5.62v5.62h-.922V245.04h.922l3.706,5.611V245.04Z" transform="translate(-478.173 -243.432)" fill="#fff"/>
        <path id="Caminho_454" data-name="Caminho 454" d="M626.457,245.1h.973l-2.664,7.057H623.7L621.04,245.1h.982l2.218,6.086,2.219-6.086Z" transform="translate(-513.559 -243.481)" fill="#fff"/>
        <path id="Caminho_455" data-name="Caminho 455" d="M670.775,251.879a3.605,3.605,0,1,1,3.544-3.6A3.482,3.482,0,0,1,670.775,251.879Zm0-.8a2.812,2.812,0,1,0-2.6-2.8A2.579,2.579,0,0,0,670.775,251.079Z" transform="translate(-551.072 -243.132)" fill="#fff"/>
        <path id="Caminho_456" data-name="Caminho 456" d="M722.3,250.767H719.22l-.567,1.57h-.973l2.551-7.018h1.063l2.542,7.018h-.973l-.567-1.57Zm-1.538-4.315-1.275,3.565h2.551l-1.275-3.565Z" transform="translate(-592.046 -243.659)" fill="#fff"/>
        <path id="Caminho_457" data-name="Caminho 457" d="M766.688,244.61a3.321,3.321,0,0,1,3.27,2.138h-1.1a2.221,2.221,0,0,0-2.168-1.326,2.809,2.809,0,0,0,0,5.6,2.23,2.23,0,0,0,2.168-1.317h1.1a3.285,3.285,0,0,1-2.917,2.106v.537c.78-.009,1.306.334,1.306,1s-.517,1.043-1.236,1.043h-1.165v-.6h.982c.436,0,.648-.122.648-.445s-.212-.436-.648-.436h-.507v-1.1a3.455,3.455,0,0,1-3.261-3.584,3.536,3.536,0,0,1,3.524-3.616Z" transform="translate(-628.983 -243.083)" fill="#fff"/>
        <path id="Caminho_458" data-name="Caminho 458" d="M817.5,243.588H814.42l-.567,1.57h-.973l2.551-7.018h1.063l2.542,7.018h-.973l-.567-1.57Zm-2.016-7.108c.537,0,.74.466,1.155.466a.443.443,0,0,0,.445-.436h.526c-.081.689-.486,1.054-1.012,1.054s-.75-.466-1.155-.466c-.223,0-.394.141-.436.445h-.537c.1-.7.486-1.063,1.012-1.063Zm.475,2.8-1.276,3.565h2.551l-1.275-3.565Z" transform="translate(-669.363 -236.48)" fill="#fff"/>
        <path id="Caminho_459" data-name="Caminho 459" d="M861.925,251.879a3.605,3.605,0,1,1,3.544-3.6A3.482,3.482,0,0,1,861.925,251.879Zm0-.8a2.812,2.812,0,1,0-2.6-2.8A2.578,2.578,0,0,0,861.925,251.079Z" transform="translate(-706.317 -243.132)" fill="#fff"/>
      </g>
      <g id="Grupo_73" data-name="Grupo 73" transform="translate(88.457 7.104)">
        <path id="Caminho_460" data-name="Caminho 460" d="M546.769,59.04a.18.18,0,0,1-.086-.023l-2.436-1.4a.173.173,0,0,1-.086-.15L544.2,51a.174.174,0,0,1,.085-.148l2.8-1.677a.176.176,0,0,1,.182,0l2.4,1.518a.173.173,0,1,1-.184.293l-2.307-1.461-2.62,1.572-.039,6.27,2.348,1.347a.174.174,0,0,1,.064.237.171.171,0,0,1-.15.086Z" transform="translate(-530.403 -47.022)" fill="#fff"/>
        <path id="Caminho_461" data-name="Caminho 461" d="M566.112,83.234a.172.172,0,0,1-.173-.173V76.892l-2.461-1.416-2.468,1.465a.173.173,0,1,1-.177-.3l2.556-1.518a.171.171,0,0,1,.175,0l2.635,1.518a.173.173,0,0,1,.086.15v6.27a.172.172,0,0,1-.173.173Z" transform="translate(-543.876 -68.099)" fill="#fff"/>
        <path id="Caminho_462" data-name="Caminho 462" d="M500.77,59.081a.173.173,0,0,1-.092-.319l2.316-1.467.039-6.155-2.789-1.666a.174.174,0,0,1-.06-.239.172.172,0,0,1,.237-.06l2.876,1.717a.175.175,0,0,1,.084.15l-.039,6.349a.166.166,0,0,1-.081.145l-2.4,1.518a.164.164,0,0,1-.092.026Z" transform="translate(-494.667 -47.021)" fill="#fff"/>
        <path id="Caminho_463" data-name="Caminho 463" d="M549.258,114.917a.173.173,0,0,1-.173-.165l-.116-2.818L546.7,110.7a.173.173,0,1,1,.165-.3l2.355,1.277a.169.169,0,0,1,.09.145l.12,2.915a.173.173,0,0,1-.165.18Z" transform="translate(-532.392 -96.749)" fill="#fff"/>
        <path id="Caminho_464" data-name="Caminho 464" d="M549.061,120.445a.168.168,0,0,1-.085-.023l-2.4-1.358a.174.174,0,0,1,.171-.3l2.31,1.309,2.543-1.46.079-5.731a.176.176,0,0,1,.175-.171.171.171,0,0,1,.171.175l-.079,5.831a.174.174,0,0,1-.086.148l-2.716,1.557a.174.174,0,0,1-.086.023Z" transform="translate(-532.296 -98.643)" fill="#fff"/>
        <path id="Caminho_465" data-name="Caminho 465" d="M500.535,114.691h-.006a.174.174,0,0,1-.169-.178l.079-2.994a.168.168,0,0,1,.086-.145l2.4-1.4a.173.173,0,1,1,.175.3l-2.312,1.349-.077,2.9A.173.173,0,0,1,500.535,114.691Z" transform="translate(-494.83 -96.403)" fill="#fff"/>
        <path id="Caminho_466" data-name="Caminho 466" d="M532,64.092a.173.173,0,0,1-.085-.023l-2.557-1.437a.173.173,0,0,1-.088-.152l.12-19.088a.174.174,0,0,1,.079-.145l2.356-1.518a.173.173,0,1,1,.186.291l-2.277,1.467-.118,18.893,2.466,1.388a.174.174,0,0,1-.085.325Z" transform="translate(-518.31 -40.973)" fill="#fff"/>
        <path id="Caminho_467" data-name="Caminho 467" d="M479.38,63.67a.173.173,0,0,1-.085-.023l-5.571-3.114a.174.174,0,0,1-.088-.154l.039-3.231-2.665-1.467a.175.175,0,0,1-.09-.152V49.12a.177.177,0,0,1,.079-.147l2.6-1.668.077-3.043a.168.168,0,0,1,.086-.145l2.735-1.6,2.757-1.538a.173.173,0,0,1,.171,0l2.834,1.657a.173.173,0,1,1-.175.3l-2.75-1.608-2.669,1.49-2.649,1.546-.077,3.039a.169.169,0,0,1-.079.141l-2.6,1.666v6.212l2.665,1.469a.174.174,0,0,1,.09.154l-.039,3.231,5.393,3.015,2.588-1.565a.174.174,0,1,1,.18.3l-2.675,1.617a.172.172,0,0,1-.09.024Z" transform="translate(-470.92 -40.37)" fill="#fff"/>
        <path id="Caminho_468" data-name="Caminho 468" d="M500.383,145.943a.173.173,0,0,1-.088-.321l2.386-1.418a.173.173,0,0,1,.177.3l-2.386,1.418A.17.17,0,0,1,500.383,145.943Z" transform="translate(-494.708 -124.201)" fill="#fff"/>
        <path id="Caminho_469" data-name="Caminho 469" d="M485.771,114.722h0a.171.171,0,0,1-.171-.175l.021-2.617a.172.172,0,0,1,.173-.171h0a.171.171,0,0,1,.171.175l-.021,2.617A.172.172,0,0,1,485.771,114.722Z" transform="translate(-482.842 -97.871)" fill="#fff"/>
        <path id="Caminho_470" data-name="Caminho 470" d="M487.854,76.132a.185.185,0,0,1-.086-.023l-2.515-1.437a.173.173,0,0,1,.173-.3l2.515,1.437a.173.173,0,0,1-.086.323Z" transform="translate(-482.489 -67.488)" fill="#fff"/>
        <g id="Grupo_57" data-name="Grupo 57" transform="translate(2.235 12.826)">
          <path id="Caminho_471" data-name="Caminho 471" d="M484.272,108.083a.532.532,0,1,0-.532-.532A.532.532,0,0,0,484.272,108.083Z" transform="translate(-483.567 -106.847)" fill="#fff" fill-rule="evenodd"/>
          <path id="Caminho_472" data-name="Caminho 472" d="M483.524,107.509a.7.7,0,1,1,.7-.7A.7.7,0,0,1,483.524,107.509Zm0-1.063a.359.359,0,1,0,.359.359A.36.36,0,0,0,483.524,106.446Z" transform="translate(-482.82 -106.1)" fill="#fff"/>
        </g>
        <g id="Grupo_58" data-name="Grupo 58" transform="translate(7.85 12.758)">
          <path id="Caminho_473" data-name="Caminho 473" d="M514.162,107.723a.532.532,0,1,0-.532-.532A.532.532,0,0,0,514.162,107.723Z" transform="translate(-513.457 -106.487)" fill="#fff" fill-rule="evenodd"/>
          <path id="Caminho_474" data-name="Caminho 474" d="M513.414,107.149a.7.7,0,1,1,.7-.7A.7.7,0,0,1,513.414,107.149Zm0-1.063a.359.359,0,1,0,.359.359A.36.36,0,0,0,513.414,106.086Z" transform="translate(-512.71 -105.74)" fill="#fff"/>
        </g>
        <g id="Grupo_59" data-name="Grupo 59" transform="translate(4.92 11.441)">
          <path id="Caminho_475" data-name="Caminho 475" d="M498.562,100.713a.532.532,0,1,0-.532-.532A.532.532,0,0,0,498.562,100.713Z" transform="translate(-497.857 -99.477)" fill="#fff" fill-rule="evenodd"/>
          <path id="Caminho_476" data-name="Caminho 476" d="M497.814,100.139a.7.7,0,1,1,.7-.7A.7.7,0,0,1,497.814,100.139Zm0-1.063a.359.359,0,1,0,.359.359A.36.36,0,0,0,497.814,99.076Z" transform="translate(-497.11 -98.73)" fill="#fff"/>
        </g>
        <g id="Grupo_60" data-name="Grupo 60" transform="translate(5.1 8.107)">
          <circle id="Elipse_9" data-name="Elipse 9" cx="0.532" cy="0.532" r="0.532" transform="translate(0.173 0.171)" fill="#fff"/>
          <path id="Caminho_477" data-name="Caminho 477" d="M498.774,82.389a.7.7,0,1,1,.7-.7A.7.7,0,0,1,498.774,82.389Zm0-1.063a.359.359,0,1,0,.359.359A.36.36,0,0,0,498.774,81.326Z" transform="translate(-498.07 -80.98)" fill="#fff"/>
        </g>
        <g id="Grupo_61" data-name="Grupo 61" transform="translate(5 17.971)">
          <path id="Caminho_478" data-name="Caminho 478" d="M498.992,135.463a.532.532,0,1,0-.532-.532A.532.532,0,0,0,498.992,135.463Z" transform="translate(-498.287 -134.229)" fill="#fff" fill-rule="evenodd"/>
          <path id="Caminho_479" data-name="Caminho 479" d="M498.244,134.9a.7.7,0,1,1,.7-.7A.7.7,0,0,1,498.244,134.9Zm0-1.063a.359.359,0,1,0,.359.359A.36.36,0,0,0,498.244,133.836Z" transform="translate(-497.54 -133.49)" fill="#fff"/>
        </g>
        <g id="Grupo_62" data-name="Grupo 62" transform="translate(7.835 19.207)">
          <path id="Caminho_480" data-name="Caminho 480" d="M514.082,142.053a.532.532,0,1,0-.532-.532A.532.532,0,0,0,514.082,142.053Z" transform="translate(-513.377 -140.817)" fill="#fff" fill-rule="evenodd"/>
          <path id="Caminho_481" data-name="Caminho 481" d="M513.334,141.479a.7.7,0,1,1,.7-.7A.7.7,0,0,1,513.334,141.479Zm0-1.063a.359.359,0,1,0,.359.359A.36.36,0,0,0,513.334,140.416Z" transform="translate(-512.63 -140.07)" fill="#fff"/>
        </g>
        <g id="Grupo_63" data-name="Grupo 63" transform="translate(13.246 19.297)">
          <path id="Caminho_482" data-name="Caminho 482" d="M542.892,142.533a.532.532,0,1,0-.532-.532A.532.532,0,0,0,542.892,142.533Z" transform="translate(-542.187 -141.297)" fill="#fff" fill-rule="evenodd"/>
          <path id="Caminho_483" data-name="Caminho 483" d="M542.144,141.959a.7.7,0,1,1,.7-.7A.7.7,0,0,1,542.144,141.959Zm0-1.063a.359.359,0,1,0,.359.359A.36.36,0,0,0,542.144,140.9Z" transform="translate(-541.44 -140.55)" fill="#fff"/>
        </g>
        <g id="Grupo_64" data-name="Grupo 64" transform="translate(13.446 22.561)">
          <path id="Caminho_484" data-name="Caminho 484" d="M543.952,159.913a.532.532,0,1,0-.531-.532A.532.532,0,0,0,543.952,159.913Z" transform="translate(-543.247 -158.677)" fill="#fff" fill-rule="evenodd"/>
          <path id="Caminho_485" data-name="Caminho 485" d="M543.2,159.339a.7.7,0,1,1,.7-.7A.7.7,0,0,1,543.2,159.339Zm0-1.063a.359.359,0,1,0,.359.359A.36.36,0,0,0,543.2,158.276Z" transform="translate(-542.5 -157.93)" fill="#fff"/>
        </g>
        <g id="Grupo_65" data-name="Grupo 65" transform="translate(16.141 17.77)">
          <path id="Caminho_486" data-name="Caminho 486" d="M558.3,134.4a.532.532,0,1,0-.532-.532A.532.532,0,0,0,558.3,134.4Z" transform="translate(-557.597 -133.167)" fill="#fff" fill-rule="evenodd"/>
          <path id="Caminho_487" data-name="Caminho 487" d="M557.554,133.829a.7.7,0,1,1,.7-.7A.7.7,0,0,1,557.554,133.829Zm0-1.063a.359.359,0,1,0,.359.359A.36.36,0,0,0,557.554,132.766Z" transform="translate(-556.85 -132.42)" fill="#fff"/>
        </g>
        <g id="Grupo_66" data-name="Grupo 66" transform="translate(13.246 12.839)">
          <path id="Caminho_488" data-name="Caminho 488" d="M542.892,108.153a.532.532,0,1,0-.532-.532A.532.532,0,0,0,542.892,108.153Z" transform="translate(-542.187 -106.917)" fill="#fff" fill-rule="evenodd"/>
          <path id="Caminho_489" data-name="Caminho 489" d="M542.144,107.579a.7.7,0,1,1,.7-.7A.7.7,0,0,1,542.144,107.579Zm0-1.063a.359.359,0,1,0,.359.359A.36.36,0,0,0,542.144,106.516Z" transform="translate(-541.44 -106.17)" fill="#fff"/>
        </g>
        <g id="Grupo_67" data-name="Grupo 67" transform="translate(16.12 11.411)">
          <path id="Caminho_490" data-name="Caminho 490" d="M558.192,100.543a.532.532,0,1,0-.531-.532A.532.532,0,0,0,558.192,100.543Z" transform="translate(-557.487 -99.309)" fill="#fff" fill-rule="evenodd"/>
          <path id="Caminho_491" data-name="Caminho 491" d="M557.444,99.979a.7.7,0,1,1,.7-.7A.7.7,0,0,1,557.444,99.979Zm0-1.063a.359.359,0,1,0,.359.359A.36.36,0,0,0,557.444,98.916Z" transform="translate(-556.74 -98.57)" fill="#fff"/>
        </g>
        <g id="Grupo_68" data-name="Grupo 68" transform="translate(18.897 13.077)">
          <path id="Caminho_492" data-name="Caminho 492" d="M572.972,109.423a.532.532,0,1,0-.531-.532A.532.532,0,0,0,572.972,109.423Z" transform="translate(-572.267 -108.187)" fill="#fff" fill-rule="evenodd"/>
          <path id="Caminho_493" data-name="Caminho 493" d="M572.224,108.849a.7.7,0,1,1,.7-.7A.7.7,0,0,1,572.224,108.849Zm0-1.063a.359.359,0,1,0,.359.359A.36.36,0,0,0,572.224,107.786Z" transform="translate(-571.52 -107.44)" fill="#fff"/>
        </g>
        <g id="Grupo_69" data-name="Grupo 69" transform="translate(21.613 14.794)">
          <circle id="Elipse_10" data-name="Elipse 10" cx="0.532" cy="0.532" r="0.532" transform="translate(0.173 0.173)" fill="#fff"/>
          <path id="Caminho_494" data-name="Caminho 494" d="M586.684,117.989a.7.7,0,1,1,.7-.7A.7.7,0,0,1,586.684,117.989Zm0-1.063a.359.359,0,1,0,.359.359A.36.36,0,0,0,586.684,116.926Z" transform="translate(-585.98 -116.58)" fill="#fff"/>
        </g>
        <g id="Grupo_70" data-name="Grupo 70" transform="translate(15.902 8.207)">
          <path id="Caminho_495" data-name="Caminho 495" d="M557.032,83.483a.532.532,0,1,0-.532-.532A.532.532,0,0,0,557.032,83.483Z" transform="translate(-556.327 -82.249)" fill="#fff" fill-rule="evenodd"/>
          <path id="Caminho_496" data-name="Caminho 496" d="M556.284,82.919a.7.7,0,1,1,.7-.7A.7.7,0,0,1,556.284,82.919Zm0-1.063a.359.359,0,1,0,.359.359A.36.36,0,0,0,556.284,81.856Z" transform="translate(-555.58 -81.51)" fill="#fff"/>
        </g>
        <g id="Grupo_71" data-name="Grupo 71" transform="translate(18.897 3.454)">
          <path id="Caminho_497" data-name="Caminho 497" d="M572.972,58.193a.532.532,0,1,0-.531-.532A.532.532,0,0,0,572.972,58.193Z" transform="translate(-572.267 -56.957)" fill="#fff" fill-rule="evenodd"/>
          <path id="Caminho_498" data-name="Caminho 498" d="M572.224,57.619a.7.7,0,1,1,.7-.7A.7.7,0,0,1,572.224,57.619Zm0-1.063a.359.359,0,1,0,.359.359A.36.36,0,0,0,572.224,56.556Z" transform="translate(-571.52 -56.21)" fill="#fff"/>
        </g>
        <g id="Grupo_72" data-name="Grupo 72" transform="translate(13.346)">
          <path id="Caminho_499" data-name="Caminho 499" d="M543.422,39.8a.532.532,0,1,0-.532-.532A.532.532,0,0,0,543.422,39.8Z" transform="translate(-542.717 -38.567)" fill="#fff" fill-rule="evenodd"/>
          <path id="Caminho_500" data-name="Caminho 500" d="M542.674,39.229a.7.7,0,1,1,.7-.7A.7.7,0,0,1,542.674,39.229Zm0-1.063a.359.359,0,1,0,.359.359A.36.36,0,0,0,542.674,38.166Z" transform="translate(-541.97 -37.82)" fill="#fff"/>
        </g>
      </g>
      <g id="Grupo_74" data-name="Grupo 74" transform="translate(73.843 2.002)">
        <path id="Caminho_501" data-name="Caminho 501" d="M417.533,116.983h-7L393.12,100.17h6.864Z" transform="translate(-393.12 -83.357)" fill="#fff"/>
        <path id="Caminho_502" data-name="Caminho 502" d="M417.533,10.66h-7L393.926,26.7l-.806.778h6.864Z" transform="translate(-393.12 -10.66)" fill="#fff"/>
      </g>
      <g id="Grupo_75" data-name="Grupo 75" transform="translate(101.452 2.002)">
        <path id="Caminho_503" data-name="Caminho 503" d="M540.1,116.983h7l17.416-16.813h-6.864Z" transform="translate(-540.1 -83.357)" fill="#fff"/>
        <path id="Caminho_504" data-name="Caminho 504" d="M540.1,10.66h7L563.708,26.7l.808.778h-6.864Z" transform="translate(-540.1 -10.66)" fill="#fff"/>
      </g>
    </g>
  </g>
</svg>
