<svg xmlns="http://www.w3.org/2000/svg" width="61" height="61" viewBox="0 0 61 61">
  <g id="idiomas" transform="translate(749 6249)">
    <circle id="Elipse_11" data-name="Elipse 11" cx="30.5" cy="30.5" r="30.5" transform="translate(-749 -6249)" fill="#1a0f42"/>
    <g id="Grupo_87" data-name="Grupo 87" transform="translate(-952.733 -7575.088)">
      <path id="Caminho_534" data-name="Caminho 534" d="M237.518,1361.023c0,.951.018,1.852,0,2.752-.074,3.085-2.308,5.506-5.356,5.274a12.039,12.039,0,0,0-8.686,2.62c-1.425,1.1-3.03,1.968-4.565,2.925-.951.592-1.453.323-1.47-.8-.023-1.547-.006-3.094-.006-4.662-.35-.105-.627-.181-.9-.271a5.221,5.221,0,0,1-3.615-4.893q-.046-4.071,0-8.143a5.155,5.155,0,0,1,5.17-5.189c3.651-.048,7.3-.015,10.954-.016h1.188c0-.917-.007-1.745,0-2.572a5.279,5.279,0,0,1,5.568-5.622q6.737-.049,13.474,0a5.225,5.225,0,0,1,5.556,5.6c.009,2.488.013,4.976,0,7.464a5.131,5.131,0,0,1-3.9,5.242c-.536.162-.621.424-.614.895q.027,1.987,0,3.974c-.017,1.127-.51,1.4-1.457.81-2.353-1.474-4.695-2.967-7.04-4.452C239.949,1360.781,239.949,1360.781,237.518,1361.023Zm-18.609,11.836c1.5-.949,2.889-1.673,4.1-2.623a10.989,10.989,0,0,1,8.78-2.565,1.1,1.1,0,0,0,.194,0,3.811,3.811,0,0,0,4.044-4.082q.021-3.683,0-7.365a3.819,3.819,0,0,0-4.144-4.172q-6.687-.016-13.374,0a3.837,3.837,0,0,0-4.146,4.095q-.043,3.73,0,7.462a3.731,3.731,0,0,0,3.506,4.015c.849.118,1.07.521,1.05,1.287C218.885,1370.161,218.909,1371.412,218.909,1372.86Zm29.923-8.18c0-1.432.03-2.677-.011-3.921-.027-.829.262-1.223,1.13-1.329a3.653,3.653,0,0,0,3.423-3.68q.107-4.068,0-8.14a3.679,3.679,0,0,0-3.614-3.711q-7.219-.073-14.44,0a3.641,3.641,0,0,0-3.545,3.135,31.123,31.123,0,0,0-.024,3.46,2.027,2.027,0,0,0,.322.1c3.691.369,5.442,2.316,5.444,6.055,0,.926,0,1.851,0,2.944a6.428,6.428,0,0,1,5.693,1.533c.3.236.653.416.981.623Z" transform="translate(0 0)" fill="#fff"/>
      <path id="Caminho_535" data-name="Caminho 535" d="M248.113,1415.415c.11-.265.2-.537.333-.792,1.339-2.642,2.672-5.288,4.043-7.914.171-.328.553-.745.845-.752s.691.4.86.725c1.386,2.655,2.73,5.331,4.081,8,.234.464.539,1-.105,1.34-.7.368-1.047-.18-1.2-.717-.632-2.216-2.042-2.885-4.291-2.647-1.187.125-1.992.27-2.372,1.5a5.783,5.783,0,0,1-.858,1.614,1.117,1.117,0,0,1-.818.292,2.663,2.663,0,0,1-.825-.285Zm5.229-7.213-1.487,2.977h2.989Z" transform="translate(-28.143 -51.228)" fill="#fff"/>
      <path id="Caminho_536" data-name="Caminho 536" d="M348.248,1370.582c.85.573,1.673,1.134,2.5,1.685.445.3.788.662.431,1.192-.369.548-.829.307-1.261.015-.826-.558-1.658-1.105-2.4-1.6-.721.668-1.381,1.276-2.035,1.889-.383.359-.811.65-1.248.158-.423-.477-.111-.874.268-1.245.546-.533,1.06-1.1,1.653-1.72a12.294,12.294,0,0,1-1.665-1.178c-.233-.229-.23-.7-.333-1.059.369-.043.8-.229,1.1-.1a12.832,12.832,0,0,1,1.752,1.126l1.112-2.125h-4.187a2.5,2.5,0,0,1-.958-.034,3.256,3.256,0,0,1-.769-.712c.255-.244.49-.668.769-.7.862-.1,1.741-.039,2.614-.048.186,0,.373-.034.644-.06a4.406,4.406,0,0,1,.028-1.278c.107-.325.456-.57.7-.849.236.286.576.538.68.865a4.823,4.823,0,0,1,.028,1.326c.925,0,1.726,0,2.527,0,.535,0,1.11.017,1.107.754,0,.66-.524.666-1.027.758a1.354,1.354,0,0,0-.827.566C349.013,1368.926,348.681,1369.7,348.248,1370.582Z" transform="translate(-104.228 -17.358)" fill="#fff"/>
    </g>
  </g>
</svg>
