<svg id="relatorios" xmlns="http://www.w3.org/2000/svg" xmlns:xlink="http://www.w3.org/1999/xlink" width="96" height="96" viewBox="0 0 96 96">
  <defs>
    <clipPath id="clip-path">
      <rect id="Rectangle" width="96" height="96" rx="6" fill="#a2a2a2"/>
    </clipPath>
  </defs>
  <g id="background">
    <rect id="Rectangle-2" data-name="Rectangle" width="96" height="96" rx="6" fill="#a2a2a2"/>
    <g id="background-2" data-name="background" clip-path="url(#clip-path)">
      <g id="Color_Primary" data-name="Color/Primary" transform="translate(0 -0.933)">
        <rect id="Rectangle-3" data-name="Rectangle" width="96" height="96" fill="#6c41ff"/>
      </g>
    </g>
  </g>
  <g id="Grupo_19" data-name="Grupo 19" transform="translate(17.964 12.861)">
    <g id="Grupo_18" data-name="Grupo 18">
      <path id="Caminho_121" data-name="Caminho 121" d="M-1057.277,775.906c0-1.7,0-3.287,0-4.877,0-1.627.257-1.9,1.887-1.927,1.234-.023,2.469-.005,3.7-.005h1.045c0-1.568,0-3.02,0-4.472,0-1.936.237-2.166,2.219-2.166h40.188c1.965,0,2.22.239,2.22,2.177q.006,26.21,0,52.42c0,.137.005.275,0,.411-.059,1.55-.327,1.816-1.861,1.819-1.6,0-3.193,0-4.9,0-.079.855-.032,1.667-.039,2.474-.009.961.011,1.921-.006,2.882-.017.978-.177,1.174-1.142,1.374a5.56,5.56,0,0,1-1.085.075c-1.412.009-2.824,0-4.33,0-.028.458-.07.853-.073,1.248-.009,1.235.011,2.47-.007,3.705-.019,1.312-.4,1.664-1.736,1.685-.182,0-.365,0-.548,0h-40.05c-2.06,0-2.287-.217-2.287-2.248q0-26.14,0-52.282c0-.183-.007-.367,0-.549.07-1.474.343-1.743,1.792-1.748C-1060.65,775.9-1059.015,775.906-1057.277,775.906Zm49.066,41.152v-1.071q-.008-25.527-.018-51.053a.242.242,0,0,0-.054-.117,1,1,0,0,0-.091-.1c-3.011-.195-38.909-.1-40,.1-.207,2.844-.121,51.18.1,52.243Zm-13.494,9.037h-33.076a5.082,5.082,0,0,1-1.1-.018c-1.246-.283-1.458-.41-1.4-1.581.015-.319,0-.641,0-.961q0-21.959,0-43.916c0-.488-.027-.976-.043-1.514-.836,0-1.565-.028-2.29.008a6.464,6.464,0,0,0-2.206.122v52.253c.373.018.686.045,1,.045q19.476-.019,38.952-.045c.037,0,.076-.042.108-.071a.381.381,0,0,0,.052-.06Zm6.632-6.809h-1.587q-15.983,0-31.964,0c-1.8,0-2.01-.222-2.016-2.063V771.357h-4.327a1.956,1.956,0,0,0-.1.419q.014,25.937.037,51.876a.22.22,0,0,0,.057.115.507.507,0,0,0,.08.075h39.825Z" transform="translate(1064.082 -762.458)" fill="#fff"/>
      <path id="Caminho_122" data-name="Caminho 122" d="M-1039.9,808.9c0-2.813-.007-5.457.007-8.1a3.841,3.841,0,0,1,.165-1.176.953.953,0,0,1,1.251-.7c.486.09.7.331.722.966.03.9.011,1.792.011,2.689,0,2.055,0,4.11,0,6.294,1.611.055,3.155.012,4.827.03v-1.127q0-6.589,0-13.178a1.658,1.658,0,0,1,.281-1.271c.279-.3.555-.608,1.02-.527a1.146,1.146,0,0,1,.845,1.07c.024.312.01.627.01.941v14.024h4.828v-1.351c0-3.182,0-6.364,0-9.547a4.2,4.2,0,0,1,.136-1.181,1.093,1.093,0,0,1,1.128-.755,1.124,1.124,0,0,1,.875,1.039c.028.356.011.717.011,1.075v10.738c1.587.095,3.131.037,4.77.029.021-.43.057-.817.057-1.2q.006-7.933.007-15.867a4.683,4.683,0,0,1,.113-1.187,1.169,1.169,0,0,1,1.113-.795,1.134,1.134,0,0,1,.911,1.01c.033.356.014.717.014,1.075q0,7.731,0,15.464v1.433a11.9,11.9,0,0,0,2.393.082,1.16,1.16,0,0,1,1.056.445,1.041,1.041,0,0,1-.714,1.7,5.529,5.529,0,0,1-.805.015h-27.284a6.947,6.947,0,0,1-.806-.012,1.1,1.1,0,0,1-1.012-1.054,1.075,1.075,0,0,1,.99-1.073c.714-.047,1.432-.016,2.15-.017Z" transform="translate(1065.963 -762.202)" fill="#fff"/>
      <path id="Caminho_123" data-name="Caminho 123" d="M-1038.83,766.855a7.158,7.158,0,0,1,7.205,7.15,7.193,7.193,0,0,1-7.187,7.2,7.24,7.24,0,0,1-7.184-7.18A7.17,7.17,0,0,1-1038.83,766.855Zm5.068,8.171c-1.539,0-2.969-.017-4.4.016a1.359,1.359,0,0,0-.758.35c-1.03.878-2.036,1.784-3.1,2.727a5.1,5.1,0,0,0,5.383.61A4.939,4.939,0,0,0-1033.762,775.026Zm-6.013-6.105c-3.764,1.032-5.447,4.819-3.427,7.591,1.017-.891,2.041-1.768,3.037-2.678a1.152,1.152,0,0,0,.373-.72C-1039.756,771.726-1039.775,770.337-1039.775,768.921Zm5.956,4.069a4.606,4.606,0,0,0-3.926-3.95v3.95Z" transform="translate(1066.147 -763.87)" fill="#fff"/>
      <path id="Caminho_124" data-name="Caminho 124" d="M-1017.985,784.275c-.536-.13-.918-.215-1.3-.314a1.011,1.011,0,0,1-.841-1.14,1.225,1.225,0,0,1,1.252-.983c.841.079,1.683.148,2.523.241a8.275,8.275,0,0,1,1.178.2c.882.23,1.106.515,1.051,1.411-.064,1.066-.175,2.131-.27,3.2a1.47,1.47,0,0,1-.65,1.254c-.366.216-.653.124-1.5-.447v-1.772c-.86.7-1.575,1.257-2.265,1.843-1.329,1.127-2.676,2.238-3.954,3.42a1.635,1.635,0,0,1-2.048.324c-2.179-1.009-4.387-1.954-6.586-2.922-.321-.141-.65-.264-1.018-.411-1.7,1.418-3.377,2.817-5.054,4.215-1.03.858-2.051,1.725-3.095,2.564a.971.971,0,0,1-1.337.073.993.993,0,0,1-.088-1.613c.708-.681,1.472-1.3,2.226-1.935,2.055-1.72,4.129-3.418,6.166-5.157a1.353,1.353,0,0,1,1.68-.3c1.157.566,2.363,1.028,3.543,1.547s2.36,1.048,3.533,1.587c.383.177.742.31,1.117-.009C-1021.85,787.558-1019.979,785.97-1017.985,784.275Z" transform="translate(1065.654 -762.082)" fill="#fff"/>
      <path id="Caminho_125" data-name="Caminho 125" d="M-1023.033,778.2c-1.368,0-2.737.013-4.1-.009a2.238,2.238,0,0,1-.98-.208.65.65,0,0,1,.009-1.189,1.728,1.728,0,0,1,.8-.2c2.861-.014,5.723-.018,8.583,0a1.849,1.849,0,0,1,.945.294.6.6,0,0,1,0,1.021,1.546,1.546,0,0,1-1.05.288C-1020.234,778.2-1021.634,778.2-1023.033,778.2Z" transform="translate(1071.056 -766.43)" fill="#fff"/>
      <path id="Caminho_126" data-name="Caminho 126" d="M-1023.054,772.265c-1.463,0-2.927,0-4.39,0-.653,0-1.033-.246-1.062-.657-.036-.495.4-.837,1.111-.839,2.927-.007,5.854,0,8.78,0a1.542,1.542,0,0,1,.28,0,1.94,1.94,0,0,1,.35.108.742.742,0,0,1,.472.731.756.756,0,0,1-.685.646,6.165,6.165,0,0,1-.653.01Z" transform="translate(1071.071 -765.268)" fill="#fff"/>
    </g>
  </g>
</svg>
