<svg id="tecnologia" xmlns="http://www.w3.org/2000/svg" xmlns:xlink="http://www.w3.org/1999/xlink" width="96" height="96" viewBox="0 0 96 96">
  <defs>
    <clipPath id="clip-path">
      <rect id="Rectangle" width="96" height="96" rx="6" fill="#a2a2a2"/>
    </clipPath>
  </defs>
  <g id="tecnologia-2" data-name="tecnologia">
    <rect id="Rectangle-2" data-name="Rectangle" width="96" height="96" rx="6" fill="#a2a2a2"/>
    <g id="background" clip-path="url(#clip-path)">
      <g id="Color_Primary" data-name="Color/Primary" transform="translate(0 -0.933)">
        <rect id="Rectangle-3" data-name="Rectangle" width="96" height="96" fill="#6c41ff"/>
      </g>
    </g>
  </g>
  <g id="Grupo_11" data-name="Grupo 11" transform="translate(8.362 8.358)">
    <g id="Grupo_10" data-name="Grupo 10">
      <path id="Caminho_106" data-name="Caminho 106" d="M-1049.586,438.421h-5.275a32.235,32.235,0,0,0,.047,3.58c.047.413.58.822.971,1.135a3.81,3.81,0,0,1,.052,6.229,2.389,2.389,0,0,0-1.09,2.3c.08,4.165.212,3.941-3.954,3.912-1.266-.009-2.532.028-3.8-.009-1.632-.047-3.022-.04-4.25,1.576-1.327,1.746-4.052,1.377-5.522-.328a3.907,3.907,0,0,1,.35-5.494,3.672,3.672,0,0,1,5.541.376,2.842,2.842,0,0,0,2.9,1.235c1.871-.032,3.742-.02,5.614-.032a.986.986,0,0,0,.3-.1,4.156,4.156,0,0,0-4.341-5.155,6.011,6.011,0,0,0-.99.008,7.114,7.114,0,0,1-7.31-2.951,4.008,4.008,0,0,0-2.391-.984,20.493,20.493,0,0,0-3.189-.039V441.03a28.124,28.124,0,0,1,5.132.087,4.7,4.7,0,0,1,2.534,1.9c2.15,3.016,5.244,1.742,8,1.916.647.041,2.735-3.086,2.737-3.813,0-.824,0-1.65,0-2.736h-1.784q-7.927,0-15.853,0c-1.91,0-2.187-.3-2.179-2.222.069-18.25,14.313-34.99,32.427-38.105,22.332-3.842,42.673,10.617,46.408,33.024a40.981,40.981,0,0,1,.432,5.1c.075,1.906-.255,2.188-2.179,2.21-.536.007-1.072,0-1.667,0-.16,1.553-.287,2.733,1.217,3.789,1.871,1.311,1.753,4.079.091,5.672a3.777,3.777,0,0,1-5.785-.458,2.192,2.192,0,0,0-2.3-1.073,1.761,1.761,0,0,1-.495,0,6.907,6.907,0,0,0-7.147,2.869,4.4,4.4,0,0,1-2.554,1.061,6.869,6.869,0,0,1-2.954,0c-2.472-.671-3.617,1.257-5.048,2.489-.406.348-.282,1.452-.211,2.191a4.558,4.558,0,0,1-1.639,4.225,4.255,4.255,0,0,0-.987,2.4,22.98,22.98,0,0,0-.046,2.967c-.064,1.686-.075,3.138,1.587,4.411,1.742,1.335,1.357,4.061-.356,5.523a3.894,3.894,0,0,1-5.488-.376,3.717,3.717,0,0,1,.4-5.554,2.746,2.746,0,0,0,1.233-2.729c-.063-1.208.091-2.433-.037-3.631a5.4,5.4,0,0,1,2.01-5.219c1.239-1.009.892-3.818-.388-4.833a3.915,3.915,0,0,1,.085-6.375c.385-.3.965-.831.9-1.149-.47-2.46,1-3.9,2.586-5.308.2-.175.355-.4.678-.76h-12.378c-.1,1.374-.354,2.555,1.2,3.635a3.634,3.634,0,0,1-.246,5.947,2.124,2.124,0,0,0-1.043,2.15c.073.93-.064,1.88.032,2.8a5.089,5.089,0,0,1-1.956,5.077,2.423,2.423,0,0,0-.673,1.7c-.07,2.7-.075,5.4.008,8.094a2.378,2.378,0,0,0,.834,1.532,4.005,4.005,0,0,1,1.561,4.508,3.96,3.96,0,0,1-3.722,2.758,3.958,3.958,0,0,1-3.772-2.689,3.678,3.678,0,0,1,1.52-4.475,1.875,1.875,0,0,0,.9-1.889c-.027-2.533.064-5.069-.054-7.6a3.235,3.235,0,0,0-.961-2.232c-3.628-2.667-4.863-6.128-4.344-10.562A77.445,77.445,0,0,0-1049.586,438.421Zm21.2-2.726-.451-9.362h-17.722l-.413,9.362Zm-16.281-22.534-1.68,10.4h17.342l-1.721-10.4Zm39.7,25.227c-5.614,0-11.371-.006-17.13.016a1.378,1.378,0,0,0-.865.358,31.062,31.062,0,0,0-3.677,3.766c-.467.637-.63,2.267-.209,2.646,1.382,1.25,2.554,3.214,5.018,2.491a20.875,20.875,0,0,1,2.295-.061,3.03,3.03,0,0,0,1.837-.747,7.67,7.67,0,0,1,8.009-3.2,10.067,10.067,0,0,0,1.811.006c.266-.008.7.007.768-.13C-1006.33,441.891-1003.568,441.214-1004.968,438.387Zm-44.224-12.376-12.226-1.964-1.563,11.589h13.327C-1049.5,432.378-1049.346,429.214-1049.192,426.012Zm23.458,9.585h13.347l-1.6-11.551-12.192,1.974Zm25.027.055A36.267,36.267,0,0,0-1004.42,421l-6.984,2.311c.578,4.229,1.133,8.28,1.687,12.337Zm-64.958-.01,1.693-12.338-7.011-2.3a36.363,36.363,0,0,0-3.675,14.64Zm16.685-12.287c.585-3.711,1.111-7.059,1.644-10.448-2.655-.426-5.242-.859-7.838-1.232a1.134,1.134,0,0,0-.958.382c-1.53,3.006-3,6.04-4.651,9.39Zm34.391-1.905c-1.632-3.327-3.059-6.272-4.532-9.195-.141-.281-.591-.629-.85-.594-2.693.372-5.375.814-8.085,1.243.56,3.506,1.1,6.883,1.673,10.457Zm-16.89-11.025c-1.082-3.494-1.994-6.667-4.217-9.222-1.272-1.46-2.439-1.579-3.661-.317-2.521,2.6-3.448,5.961-4.517,9.54Zm-10.255,28.083h-5.2c0,4.467-.008,8.81.015,13.152a1.734,1.734,0,0,0,.337,1.041c1.088,1.287,2.229,2.531,3.352,3.79l.762-.225a14.476,14.476,0,0,0,.778-2.583,15.769,15.769,0,0,0-.008-3.623,3.017,3.017,0,0,0-.921-1.813c-2-1.661-2.406-4.513-.422-6C-1041.617,441.183-1041.537,440.046-1041.734,438.508Zm36.512-20.019c-2.5-2.96-4.674-5.562-6.9-8.112a1.561,1.561,0,0,0-1.26-.425c-1.107.233-2.179.635-3.205.952,1.486,3.3,2.915,6.475,4.426,9.83Zm-53.575-7.581c-.953-.3-1.925-.655-2.921-.908a1.564,1.564,0,0,0-1.208.083,34.734,34.734,0,0,0-6.809,8.548l6.525,2.1Zm37.631-1.684c-3.181-3.934-6.583-6.774-11.035-8.275l3.655,9.276Zm-33.047.029c2.49.314,4.548.615,6.617.8a1.46,1.46,0,0,0,1.2-.637c1.086-2.758,2.076-5.554,3.132-8.442A23.7,23.7,0,0,0-1054.213,409.252Zm-5.706-1.924.192.832c1.015,0,2.392.42,2.978-.082a40.239,40.239,0,0,0,4.085-4.613l-.186-.305Zm37.448-4.15-.29.315c1.058,1.183,2.147,2.34,3.17,3.553,1.448,1.718,1.921,1.8,4.244.351Zm-15.987,41.843c-.856-.632-1.388-1.317-1.783-1.245a1.993,1.993,0,0,0-1.3,1.24c-.08.3.709,1.166,1.134,1.185C-1039.9,446.225-1039.367,445.612-1038.458,445.022Zm35.029,1.84c.661-.83,1.366-1.337,1.308-1.734a1.992,1.992,0,0,0-1.194-1.346c-.3-.091-1.2.667-1.227,1.09C-1004.582,445.377-1003.987,445.932-1003.429,446.862Zm-50.937-.463c-.777-.638-1.273-1.348-1.667-1.295-.526.07-.972.735-1.452,1.144.437.454.815,1.157,1.331,1.279C-1055.767,447.618-1055.2,446.961-1054.366,446.4Zm25.914.677c-.616.881-1.284,1.43-1.2,1.82a2,2,0,0,0,1.272,1.268c.3.073,1.144-.739,1.153-1.165C-1027.219,448.493-1027.842,447.973-1028.452,447.076Zm-40.888,9.055c.592-.9,1.244-1.473,1.15-1.861-.126-.515-.833-.888-1.29-1.321-.407.43-1.138.863-1.135,1.291C-1070.613,454.746-1069.976,455.247-1069.34,456.131Zm40.081,15.25c-.824-.576-1.373-1.245-1.763-1.163-.518.111-.91.808-1.357,1.252.472.419.9,1.094,1.428,1.176C-1030.558,472.707-1030.048,472-1029.259,471.381Zm-13.7-.5c-.627.869-1.3,1.408-1.227,1.8a2,2,0,0,0,1.252,1.288c.3.077,1.156-.722,1.172-1.147C-1041.748,472.31-1042.363,471.782-1042.961,470.876Z" transform="translate(1077.331 -397.435)" fill="#fff"/>
      <path id="Caminho_107" data-name="Caminho 107" d="M-1025.448,452.885c0,.926.017,1.633,0,2.338a2.919,2.919,0,0,0,1.147,2.924,2.932,2.932,0,0,1-.012,4.454,3.14,3.14,0,0,1-4.6-.224,2.988,2.988,0,0,1,.409-4.452,2.089,2.089,0,0,0,.943-2.079c-.051-1.191.012-2.386-.02-3.579-.029-1.063.435-1.537,1.505-1.518,1.678.03,3.358-.01,5.036.016a1.536,1.536,0,0,0,1.512-.73,3.06,3.06,0,0,1,4.721-.542,3.146,3.146,0,0,1-.052,4.7,3.039,3.039,0,0,1-4.63-.534,1.629,1.629,0,0,0-1.62-.781C-1022.513,452.908-1023.916,452.885-1025.448,452.885Zm8.446-2.578c-.481.721-1.008,1.172-.936,1.484.1.414.663.718,1.026,1.07.33-.342.92-.684.921-1.028C-1015.991,451.428-1016.5,451.02-1017,450.307Zm-9.45,8.5c-.525.677-1.085,1.091-1.033,1.406a1.6,1.6,0,0,0,.971,1.069c.241.07.951-.547.974-.887C-1025.514,459.989-1026,459.549-1026.453,458.807Z" transform="translate(1083.922 -391.864)" fill="#fff"/>
      <path id="Caminho_108" data-name="Caminho 108" d="M-1049.28,457.07a3.708,3.708,0,0,1-2.5,3.546,3.6,3.6,0,0,1-4.139-1.257,2.46,2.46,0,0,0-4.084.043,3.645,3.645,0,0,1-5.459.389,3.677,3.677,0,0,1,.039-5.379,3.654,3.654,0,0,1,5.456.472,2.458,2.458,0,0,0,4.082-.042,3.6,3.6,0,0,1,4.01-1.252A3.719,3.719,0,0,1-1049.28,457.07Zm-13.631-1.712c-.577.825-1.2,1.34-1.126,1.705a1.877,1.877,0,0,0,1.193,1.188c.282.069,1.072-.693,1.079-1.092C-1061.754,456.687-1062.338,456.2-1062.91,455.359Zm11.628,1.8c-.74-.576-1.224-1.23-1.595-1.172-.489.077-.89.713-1.329,1.109.421.414.793,1.064,1.28,1.165C-1052.561,458.334-1052.051,457.7-1051.282,457.157Z" transform="translate(1076.873 -389.209)" fill="#fff"/>
    </g>
  </g>
</svg>
